<svg id="svg" version="1.1" xmlns="http://www.w3.org/2000/svg" xmlns:xlink="http://www.w3.org/1999/xlink" width="400" height="86.52751423149905" viewBox="0, 0, 400,86.52751423149905"><g id="svgg"><path id="path0" d="M196.667 36.322 C 196.667 55.872,196.648 56.471,195.984 58.000 C 191.671 67.935,177.923 66.289,176.150 55.625 C 175.479 51.593,177.933 47.027,181.818 45.075 C 183.509 44.226,184.151 44.123,188.417 44.017 L 192.417 43.917 192.461 39.958 L 192.506 36.000 188.378 36.012 C 186.108 36.019,183.875 36.088,183.417 36.167 C 182.046 36.400,180.949 36.677,180.391 36.929 C 180.103 37.060,179.788 37.167,179.693 37.167 C 178.286 37.167,172.353 41.819,171.289 43.757 C 171.176 43.963,170.809 44.582,170.474 45.132 C 166.271 52.028,167.510 61.378,173.405 67.257 C 183.764 77.586,200.965 72.490,204.370 58.083 C 204.514 57.473,204.581 51.920,204.619 37.375 L 204.671 17.500 200.669 17.500 L 196.667 17.500 196.667 36.322 M208.500 42.482 L 208.500 56.464 208.900 56.564 C 209.364 56.681,215.449 56.662,216.077 56.542 L 216.500 56.461 216.500 42.481 L 216.500 28.500 212.500 28.500 L 208.500 28.500 208.500 42.482 M220.714 48.458 C 220.776 70.042,220.709 68.334,221.608 71.083 C 223.767 77.688,232.163 84.133,237.750 83.475 L 238.250 83.417 238.250 78.917 L 238.250 74.417 237.195 74.300 C 234.385 73.990,231.476 71.892,230.194 69.250 C 229.194 67.189,229.145 66.560,229.200 56.333 L 229.250 47.083 234.378 47.000 L 239.507 46.917 238.253 44.871 C 237.564 43.746,237.000 42.794,237.000 42.755 C 237.000 42.715,236.784 42.361,236.520 41.967 C 236.256 41.573,235.897 40.987,235.723 40.667 C 235.548 40.346,235.202 39.766,234.953 39.379 L 234.501 38.675 231.876 38.629 L 229.250 38.583 229.206 33.542 L 229.162 28.500 224.909 28.500 L 220.656 28.500 220.714 48.458 M281.278 28.611 C 280.980 28.909,281.158 56.499,281.458 56.525 C 282.301 56.595,288.006 56.610,288.542 56.542 L 289.167 56.464 289.167 42.482 L 289.167 28.500 285.278 28.500 C 283.139 28.500,281.339 28.550,281.278 28.611 M104.000 36.111 C 89.243 38.588,83.295 56.325,93.612 67.089 C 95.923 69.500,98.488 71.013,102.167 72.136 C 103.826 72.642,108.551 72.875,108.711 72.458 C 108.835 72.135,108.860 65.264,108.739 64.947 C 108.652 64.721,108.399 64.666,107.441 64.661 C 101.158 64.630,96.500 60.234,96.500 54.333 C 96.500 48.621,100.792 44.335,106.833 44.018 L 108.750 43.917 108.750 40.000 L 108.750 36.083 106.583 36.062 C 105.392 36.050,104.229 36.072,104.000 36.111 M127.333 36.170 C 120.909 37.303,115.778 41.592,113.680 47.583 C 112.760 50.209,112.750 50.370,112.750 61.917 L 112.750 72.583 116.750 72.583 L 120.750 72.583 120.837 61.917 C 120.904 53.702,120.975 51.097,121.145 50.583 C 122.160 47.517,124.941 44.993,128.045 44.321 L 129.006 44.112 128.961 40.098 L 128.917 36.083 128.500 36.061 C 128.271 36.048,127.746 36.097,127.333 36.170 M144.667 36.165 C 137.131 37.583,132.017 42.195,129.696 49.667 C 129.060 51.714,129.035 57.321,129.654 58.870 C 129.738 59.079,129.932 59.663,130.085 60.167 C 131.229 63.938,134.339 67.795,138.050 70.047 C 141.805 72.326,142.895 72.537,151.375 72.625 L 158.333 72.697 158.333 68.696 L 158.333 64.694 152.042 64.622 C 144.375 64.534,143.888 64.435,141.214 62.426 C 134.663 57.501,136.887 47.130,144.990 44.812 C 149.225 43.601,154.501 45.798,156.553 49.626 C 157.155 50.751,157.698 50.659,150.167 50.708 L 143.750 50.750 143.750 53.583 L 143.750 56.417 154.239 56.417 L 164.728 56.417 165.070 55.500 C 166.067 52.823,165.358 48.306,163.415 44.963 C 159.783 38.711,151.583 34.863,144.667 36.165 M256.750 36.101 C 244.421 37.933,237.448 51.131,242.844 62.417 C 244.081 65.004,246.430 67.699,249.128 69.625 C 249.417 69.831,249.725 70.000,249.813 70.000 C 249.900 70.000,249.997 70.057,250.028 70.127 C 250.109 70.312,252.547 71.500,252.846 71.500 C 252.986 71.500,253.171 71.569,253.258 71.654 C 253.960 72.335,256.110 72.545,263.208 72.622 L 270.167 72.697 270.167 68.682 L 270.167 64.667 264.458 64.661 C 257.755 64.654,256.786 64.538,254.727 63.496 C 248.320 60.255,247.269 52.108,252.619 47.160 C 255.795 44.223,260.104 43.656,264.140 45.643 C 265.632 46.378,267.087 47.663,267.990 49.046 C 269.140 50.805,269.643 50.667,262.079 50.667 L 255.492 50.667 255.538 53.542 L 255.583 56.417 266.045 56.460 L 276.507 56.503 276.689 56.043 C 279.449 49.049,273.556 39.345,265.044 36.868 C 264.424 36.687,263.617 36.452,263.250 36.345 C 262.576 36.148,257.673 35.964,256.750 36.101 " stroke="none" fill="#108995" fill-rule="evenodd"></path><path id="path1" d="M0.000 43.250 L 0.000 86.500 200.000 86.500 L 400.000 86.500 400.000 43.250 L 400.000 0.000 200.000 0.000 L 0.000 0.000 0.000 43.250 M204.816 17.395 C 205.137 17.783,205.073 56.317,204.749 57.561 C 204.612 58.087,204.500 58.681,204.499 58.883 C 204.498 59.085,204.396 59.444,204.272 59.682 C 204.148 59.920,203.997 60.381,203.936 60.707 C 203.813 61.362,203.399 62.273,203.156 62.423 C 203.070 62.476,203.000 62.631,203.000 62.767 C 203.000 62.902,202.858 63.217,202.685 63.465 C 202.512 63.713,202.100 64.329,201.770 64.833 C 197.878 70.775,189.973 74.115,183.059 72.739 C 181.406 72.410,178.721 71.536,178.141 71.137 C 177.898 70.970,177.628 70.833,177.542 70.833 C 177.389 70.833,175.564 69.698,175.060 69.289 C 174.450 68.794,173.096 67.556,172.851 67.270 C 172.704 67.098,172.185 66.498,171.699 65.937 C 171.212 65.376,170.704 64.692,170.570 64.417 C 170.435 64.142,170.056 63.429,169.726 62.833 C 169.397 62.237,168.857 60.962,168.526 60.000 L 167.925 58.250 167.867 54.611 C 167.820 51.640,167.858 50.830,168.070 50.195 C 168.214 49.767,168.481 48.905,168.664 48.280 C 169.566 45.195,172.227 41.535,175.140 39.373 C 177.165 37.870,179.169 36.909,181.893 36.137 C 183.160 35.778,192.006 35.482,192.443 35.784 C 192.668 35.939,192.814 43.342,192.605 43.958 C 192.478 44.332,192.464 44.333,188.832 44.333 C 183.525 44.333,181.834 44.876,179.302 47.392 C 176.296 50.378,175.497 55.558,177.522 58.917 C 177.688 59.192,177.948 59.642,178.099 59.917 C 180.705 64.650,188.829 65.698,192.833 61.818 C 193.297 61.368,193.719 61.000,193.770 61.000 C 193.891 61.000,194.487 60.286,194.494 60.132 C 194.498 60.068,194.681 59.748,194.902 59.422 C 195.124 59.096,195.516 58.249,195.775 57.540 L 196.245 56.250 196.289 36.933 C 196.322 22.972,196.386 17.554,196.521 17.392 C 196.796 17.060,204.540 17.063,204.816 17.395 M213.847 17.504 C 217.109 18.382,217.133 23.920,213.878 24.824 C 210.351 25.803,207.500 22.639,209.052 19.467 C 209.964 17.602,211.650 16.912,213.847 17.504 M286.295 17.421 C 288.514 18.080,289.654 20.374,288.839 22.538 C 287.864 25.124,284.716 25.851,282.587 23.981 C 279.574 21.336,282.435 16.275,286.295 17.421 M216.684 28.667 C 216.829 29.187,216.872 55.599,216.729 56.312 L 216.625 56.833 212.596 56.833 C 209.684 56.833,208.511 56.778,208.367 56.633 C 208.100 56.367,208.075 28.982,208.341 28.486 C 208.507 28.175,208.694 28.163,212.542 28.205 L 216.568 28.250 216.684 28.667 M229.500 33.083 C 229.546 35.742,229.644 38.010,229.718 38.125 C 229.816 38.276,230.511 38.333,232.228 38.333 L 234.604 38.333 235.008 38.875 C 235.230 39.173,235.394 39.473,235.373 39.542 C 235.351 39.610,235.418 39.648,235.521 39.625 C 235.624 39.602,235.782 39.795,235.872 40.055 C 236.036 40.525,237.938 43.802,238.598 44.750 C 238.789 45.025,238.998 45.362,239.063 45.500 C 239.127 45.637,239.288 45.938,239.421 46.167 C 239.553 46.396,239.663 46.752,239.664 46.958 L 239.667 47.333 235.125 47.352 C 232.627 47.362,230.420 47.357,230.220 47.341 C 229.522 47.286,229.500 47.578,229.500 56.736 C 229.500 66.389,229.576 67.308,230.523 69.181 C 231.687 71.482,235.212 74.000,237.269 74.000 C 237.820 74.000,238.199 74.088,238.329 74.245 C 238.591 74.560,238.614 83.453,238.354 83.713 C 237.999 84.068,233.978 83.371,232.417 82.683 C 230.760 81.953,229.133 81.119,228.734 80.795 C 228.468 80.579,228.063 80.283,227.833 80.136 C 226.164 79.070,223.619 76.069,222.496 73.841 C 221.570 72.006,221.170 71.073,221.063 70.500 C 221.002 70.179,220.887 69.832,220.805 69.728 C 220.351 69.146,220.107 29.062,220.553 28.372 C 220.659 28.209,221.676 28.171,225.053 28.206 L 229.417 28.250 229.500 33.083 M289.417 42.500 L 289.417 56.750 285.345 56.795 C 283.056 56.820,281.206 56.773,281.121 56.688 C 280.952 56.519,280.918 28.600,281.087 28.328 C 281.152 28.222,282.683 28.177,285.303 28.205 L 289.417 28.250 289.417 42.500 M108.700 35.841 L 109.083 36.015 109.049 39.940 C 109.008 44.601,109.160 44.279,106.950 44.386 C 104.836 44.488,103.552 44.732,103.005 45.136 C 102.773 45.307,102.298 45.541,101.950 45.656 C 101.438 45.825,100.312 46.695,99.628 47.449 C 98.709 48.464,98.305 49.010,98.057 49.574 C 97.893 49.946,97.697 50.294,97.620 50.349 C 96.687 51.013,96.681 57.031,97.612 58.191 C 97.711 58.315,97.850 58.604,97.920 58.833 C 98.184 59.699,100.616 62.346,101.590 62.827 C 101.861 62.962,102.271 63.192,102.500 63.339 C 103.259 63.826,105.058 64.217,107.000 64.317 L 108.917 64.417 108.964 68.333 C 109.026 73.498,109.249 73.000,106.872 72.999 C 103.458 72.999,100.769 72.296,97.530 70.560 C 95.461 69.450,92.809 67.089,91.730 65.397 C 91.562 65.133,91.360 64.871,91.280 64.814 C 91.003 64.617,89.500 61.674,89.500 61.329 C 89.500 61.208,89.401 60.991,89.281 60.846 C 89.161 60.702,88.976 60.208,88.871 59.750 C 88.766 59.292,88.560 58.415,88.412 57.802 C 87.915 55.733,88.264 50.135,88.998 48.417 C 89.116 48.142,89.427 47.445,89.689 46.868 C 89.952 46.290,90.167 45.787,90.167 45.748 C 90.167 45.547,91.715 43.167,91.846 43.167 C 91.931 43.167,92.000 43.062,92.000 42.935 C 92.000 42.504,94.745 39.922,96.252 38.936 C 97.076 38.397,97.953 37.816,98.202 37.645 C 98.450 37.473,98.743 37.333,98.852 37.333 C 98.962 37.333,99.433 37.154,99.901 36.934 C 102.054 35.923,107.418 35.257,108.700 35.841 M128.875 35.812 C 129.144 35.832,129.167 36.152,129.167 40.023 C 129.167 44.578,129.152 44.648,128.209 44.661 C 127.791 44.667,125.797 45.320,125.667 45.494 C 125.621 45.555,125.242 45.838,124.824 46.122 C 123.946 46.719,122.663 48.173,122.321 48.958 C 122.191 49.256,122.037 49.500,121.977 49.500 C 121.253 49.500,121.106 51.542,121.058 62.239 C 121.033 67.917,120.974 72.662,120.927 72.784 C 120.858 72.962,120.029 72.997,116.720 72.961 L 112.598 72.917 112.482 72.500 C 112.300 71.844,112.317 53.799,112.503 51.667 C 112.866 47.475,114.666 43.651,117.677 40.672 C 119.240 39.125,122.856 36.833,123.734 36.833 C 123.935 36.833,124.171 36.765,124.258 36.683 C 124.522 36.431,127.657 35.707,128.250 35.761 C 128.433 35.777,128.715 35.800,128.875 35.812 M152.584 36.334 C 154.309 36.791,157.525 38.218,157.833 38.663 C 157.879 38.729,158.012 38.814,158.129 38.851 C 159.825 39.395,164.015 44.556,164.841 47.122 C 164.952 47.467,165.111 47.836,165.194 47.941 C 165.874 48.800,165.950 54.171,165.305 55.750 L 164.897 56.750 154.342 56.793 C 146.684 56.824,143.725 56.784,143.560 56.648 C 143.297 56.429,143.223 50.755,143.481 50.595 C 143.562 50.545,146.485 50.500,149.975 50.496 C 153.465 50.492,156.358 50.428,156.404 50.354 C 156.645 49.964,154.331 47.053,153.476 46.671 C 153.233 46.563,152.877 46.327,152.684 46.147 C 152.491 45.967,152.333 45.870,152.333 45.931 C 152.333 45.991,152.240 45.967,152.125 45.877 C 152.010 45.786,151.467 45.578,150.917 45.413 C 150.367 45.249,149.845 45.051,149.758 44.974 C 149.549 44.788,145.712 44.792,145.597 44.978 C 145.548 45.058,145.206 45.171,144.837 45.230 C 139.365 46.105,135.844 54.215,138.837 59.053 C 139.110 59.494,139.333 59.933,139.333 60.028 C 139.333 60.275,141.837 62.667,142.095 62.667 C 142.213 62.667,142.410 62.760,142.532 62.875 C 143.794 64.054,145.659 64.333,152.289 64.333 C 155.507 64.333,158.258 64.379,158.403 64.434 C 158.802 64.588,158.802 72.746,158.403 72.899 C 158.258 72.954,155.254 73.000,151.728 73.000 C 145.198 73.000,144.898 72.978,142.167 72.301 C 140.604 71.913,136.854 69.902,135.642 68.802 C 134.815 68.050,133.475 66.750,133.150 66.384 C 132.152 65.259,130.000 61.449,130.000 60.808 C 130.000 60.675,129.933 60.495,129.852 60.408 C 128.619 59.092,128.561 50.878,129.766 48.445 C 129.895 48.185,130.001 47.885,130.001 47.778 C 130.004 47.440,131.346 44.767,131.710 44.375 C 131.901 44.169,132.001 44.000,131.932 44.000 C 131.495 44.000,135.067 40.277,136.583 39.150 C 138.074 38.043,141.121 36.615,142.583 36.338 C 142.950 36.268,143.382 36.156,143.543 36.087 C 144.978 35.480,149.865 35.613,152.584 36.334 M263.704 36.162 C 268.676 37.353,273.350 40.785,275.516 44.833 C 275.736 45.245,275.958 45.620,276.009 45.666 C 276.171 45.814,276.637 46.900,276.760 47.417 C 276.826 47.692,276.950 48.007,277.036 48.116 C 277.813 49.104,277.768 55.442,276.981 55.928 C 276.900 55.979,276.833 56.157,276.833 56.325 C 276.833 56.493,276.715 56.677,276.570 56.732 C 275.959 56.967,255.548 56.842,255.350 56.603 C 255.218 56.445,255.173 55.472,255.204 53.478 L 255.250 50.583 261.667 50.493 C 265.196 50.443,268.107 50.387,268.136 50.368 C 268.215 50.316,267.972 49.596,267.844 49.500 C 267.783 49.454,267.565 49.141,267.360 48.804 C 266.591 47.538,263.659 45.333,262.744 45.333 C 262.616 45.333,262.161 45.214,261.732 45.069 C 260.479 44.643,256.732 44.829,256.333 45.335 C 256.287 45.394,255.894 45.539,255.458 45.659 C 255.023 45.779,254.667 45.942,254.667 46.022 C 254.667 46.101,254.584 46.167,254.482 46.167 C 254.195 46.167,252.998 47.132,252.125 48.068 C 251.345 48.903,251.106 49.281,250.175 51.150 C 248.602 54.311,249.709 59.034,252.648 61.693 C 253.532 62.493,255.260 63.552,255.750 63.593 C 255.842 63.601,256.217 63.745,256.583 63.914 C 257.185 64.192,257.872 64.228,263.667 64.290 C 269.325 64.350,270.108 64.390,270.292 64.628 C 270.558 64.971,270.590 72.188,270.327 72.678 C 270.093 73.115,258.123 73.175,256.000 72.749 C 254.701 72.488,251.479 71.495,251.333 71.311 C 251.287 71.253,250.821 70.974,250.296 70.690 C 247.817 69.352,245.440 67.202,243.916 64.918 C 243.550 64.368,243.156 63.819,243.042 63.698 C 242.927 63.576,242.833 63.362,242.833 63.222 C 242.833 63.082,242.687 62.763,242.508 62.512 C 240.965 60.344,240.173 53.478,241.074 50.083 C 241.594 48.126,241.871 47.320,242.101 47.090 C 242.229 46.962,242.333 46.786,242.333 46.700 C 242.333 46.522,242.905 45.255,243.213 44.751 C 244.527 42.600,248.204 38.833,248.990 38.833 C 249.087 38.833,249.167 38.767,249.167 38.687 C 249.167 38.606,249.392 38.447,249.667 38.333 C 249.942 38.219,250.167 38.060,250.167 37.980 C 250.167 37.899,250.268 37.833,250.392 37.833 C 250.516 37.833,250.947 37.659,251.350 37.447 C 252.528 36.826,255.084 36.036,256.604 35.823 C 258.268 35.591,262.078 35.773,263.704 36.162 M316.417 68.833 L 316.417 71.750 302.917 71.750 L 289.417 71.750 289.371 69.006 C 289.345 67.497,289.362 66.166,289.408 66.047 C 289.474 65.873,292.060 65.840,302.953 65.874 L 316.417 65.917 316.417 68.833 " stroke="none" fill="#f4f4f4" fill-rule="evenodd"></path><path id="path2" d="M211.430 17.436 C 207.186 18.770,208.025 25.004,212.448 24.999 C 214.232 24.997,215.338 24.258,216.122 22.545 C 217.418 19.716,214.451 16.486,211.430 17.436 M284.030 17.484 C 281.197 18.462,280.398 22.059,282.587 23.981 C 284.716 25.851,287.864 25.124,288.839 22.538 C 290.008 19.436,287.131 16.413,284.030 17.484 M289.407 66.048 C 289.362 66.166,289.345 67.497,289.371 69.006 L 289.417 71.750 302.917 71.750 L 316.417 71.750 316.463 69.022 C 316.494 67.152,316.448 66.222,316.317 66.064 C 316.043 65.733,289.534 65.718,289.407 66.048 " stroke="none" fill="#d3dc30" fill-rule="evenodd"></path><path id="path3" d="M196.581 17.539 C 196.538 17.655,196.484 26.446,196.460 37.075 C 196.436 47.703,196.464 56.178,196.522 55.908 C 196.580 55.638,196.636 46.885,196.647 36.458 L 196.667 17.500 200.666 17.500 L 204.665 17.500 204.709 37.042 L 204.752 56.583 204.751 37.000 L 204.750 17.417 200.704 17.372 C 197.557 17.337,196.641 17.374,196.581 17.539 M208.444 28.444 C 208.383 28.506,208.333 34.881,208.333 42.611 L 208.333 56.667 208.708 56.647 C 208.991 56.633,209.011 56.609,208.792 56.552 C 208.517 56.480,208.500 55.669,208.500 42.488 L 208.500 28.500 212.500 28.500 L 216.500 28.500 216.500 42.488 L 216.500 56.477 216.125 56.549 C 215.803 56.611,215.815 56.625,216.208 56.644 L 216.667 56.667 216.667 42.500 L 216.667 28.333 212.611 28.333 C 210.381 28.333,208.506 28.383,208.444 28.444 M220.611 28.444 C 220.470 28.586,220.503 67.246,220.645 67.908 C 220.703 68.178,220.729 59.422,220.704 48.450 L 220.658 28.500 224.910 28.500 L 229.162 28.500 229.206 33.542 L 229.250 38.583 231.876 38.629 L 234.501 38.675 234.953 39.379 C 235.202 39.766,235.548 40.346,235.723 40.667 C 235.897 40.987,236.256 41.573,236.520 41.967 C 236.784 42.361,237.000 42.715,237.000 42.755 C 237.000 42.794,237.564 43.746,238.253 44.871 L 239.507 46.917 234.378 47.000 L 229.250 47.083 229.207 56.471 C 229.183 61.635,229.221 66.079,229.290 66.348 C 229.360 66.617,229.417 62.430,229.417 57.043 L 229.417 47.250 234.542 47.206 C 237.521 47.180,239.667 47.098,239.667 47.008 C 239.667 46.874,234.928 38.884,234.720 38.667 C 234.676 38.621,233.465 38.546,232.028 38.500 L 229.417 38.417 229.373 33.375 L 229.328 28.333 225.025 28.333 C 222.659 28.333,220.672 28.383,220.611 28.444 M281.114 28.442 C 281.051 28.504,281.000 34.881,281.000 42.611 L 281.000 56.667 281.458 56.644 C 281.853 56.624,281.864 56.611,281.541 56.549 L 281.165 56.477 281.207 42.530 L 281.250 28.583 285.208 28.539 L 289.167 28.494 289.167 42.486 L 289.167 56.479 288.625 56.552 C 288.187 56.612,288.211 56.622,288.750 56.605 L 289.417 56.583 289.417 42.500 L 289.417 28.417 285.322 28.372 C 283.070 28.348,281.177 28.379,281.114 28.442 M103.681 35.979 C 103.460 36.041,104.528 36.090,106.055 36.087 C 107.582 36.085,108.832 36.027,108.833 35.958 C 108.834 35.805,104.239 35.823,103.681 35.979 M127.333 36.007 C 127.030 36.109,127.189 36.138,127.917 36.115 L 128.917 36.083 129.005 40.083 L 129.092 44.083 129.130 40.222 C 129.175 35.484,129.139 35.399,127.333 36.007 M144.699 35.975 C 144.488 36.035,145.793 36.083,147.599 36.083 C 149.405 36.083,150.591 36.031,150.233 35.968 C 149.420 35.824,145.217 35.829,144.699 35.975 M183.364 35.975 C 183.151 36.035,185.150 36.083,187.806 36.083 C 190.461 36.083,192.599 36.027,192.557 35.958 C 192.464 35.807,183.909 35.822,183.364 35.975 M256.532 35.975 C 256.321 36.035,257.582 36.083,259.334 36.083 C 261.087 36.083,262.347 36.035,262.135 35.975 C 261.923 35.915,260.662 35.867,259.333 35.867 C 258.004 35.867,256.744 35.915,256.532 35.975 M102.123 36.327 C 101.778 36.393,101.441 36.504,101.373 36.572 C 101.233 36.713,102.411 36.521,102.917 36.320 C 103.324 36.158,102.976 36.161,102.123 36.327 M125.917 36.280 C 125.133 36.455,123.486 37.041,123.562 37.117 C 123.607 37.163,124.100 37.043,124.656 36.850 C 125.213 36.658,125.799 36.499,125.959 36.497 C 126.119 36.496,126.362 36.422,126.500 36.333 C 126.782 36.151,126.575 36.132,125.917 36.280 M142.927 36.354 C 142.000 36.571,141.936 36.729,142.833 36.584 C 143.603 36.459,144.349 36.164,143.833 36.188 C 143.696 36.195,143.288 36.269,142.927 36.354 M151.250 36.316 C 151.753 36.522,152.964 36.702,152.667 36.526 C 152.529 36.444,152.079 36.333,151.667 36.278 C 151.211 36.218,151.048 36.233,151.250 36.316 M181.593 36.354 C 180.666 36.571,180.603 36.729,181.500 36.584 C 182.270 36.459,183.016 36.164,182.500 36.188 C 182.362 36.195,181.954 36.269,181.593 36.354 M254.790 36.327 C 254.101 36.460,253.757 36.674,254.264 36.654 C 254.655 36.638,256.017 36.201,255.667 36.203 C 255.529 36.204,255.135 36.260,254.790 36.327 M263.083 36.316 C 263.586 36.522,264.798 36.702,264.500 36.526 C 264.362 36.444,263.912 36.333,263.500 36.278 C 263.045 36.218,262.881 36.233,263.083 36.316 M192.571 39.833 C 192.571 41.804,192.595 42.610,192.624 41.625 C 192.654 40.640,192.654 39.027,192.624 38.042 C 192.595 37.056,192.571 37.862,192.571 39.833 M100.583 36.786 C 100.400 36.830,100.175 36.942,100.083 37.035 C 99.971 37.149,100.052 37.164,100.333 37.082 C 101.196 36.829,101.398 36.590,100.583 36.786 M140.583 37.140 C 139.514 37.563,137.833 38.450,137.833 38.591 C 137.833 38.623,138.490 38.325,139.292 37.928 C 140.094 37.531,141.031 37.116,141.375 37.007 C 141.719 36.897,142.000 36.776,142.000 36.737 C 142.000 36.607,141.755 36.676,140.583 37.140 M153.417 36.923 C 153.692 37.049,154.029 37.149,154.167 37.146 C 154.304 37.142,154.192 37.037,153.917 36.911 C 153.642 36.785,153.304 36.684,153.167 36.688 C 153.029 36.691,153.142 36.797,153.417 36.923 M179.917 36.925 L 179.417 37.169 179.917 37.072 C 180.192 37.020,180.488 36.907,180.575 36.822 C 180.809 36.593,180.500 36.641,179.917 36.925 M253.000 36.870 C 252.679 36.965,252.502 37.074,252.607 37.113 C 252.712 37.151,253.049 37.072,253.357 36.938 C 254.008 36.654,253.837 36.621,253.000 36.870 M265.000 36.809 C 265.137 36.889,265.475 37.004,265.750 37.063 C 266.070 37.132,266.160 37.119,266.000 37.025 C 265.862 36.944,265.525 36.830,265.250 36.770 C 264.930 36.701,264.840 36.715,265.000 36.809 M98.249 37.880 C 94.315 39.953,90.337 44.441,89.427 47.833 C 89.365 48.063,89.657 47.546,90.075 46.685 C 91.989 42.748,94.802 39.824,98.458 37.969 C 99.215 37.586,99.833 37.248,99.833 37.219 C 99.833 37.083,99.483 37.229,98.249 37.880 M122.375 37.577 C 121.894 37.801,121.500 38.022,121.500 38.068 C 121.500 38.159,123.122 37.434,123.287 37.269 C 123.461 37.095,123.281 37.156,122.375 37.577 M154.592 37.315 C 154.679 37.396,154.938 37.512,155.167 37.572 L 155.583 37.681 155.167 37.430 C 154.702 37.150,154.337 37.077,154.592 37.315 M178.057 37.734 C 177.405 38.046,176.825 38.379,176.766 38.474 C 176.673 38.625,179.106 37.450,179.311 37.245 C 179.477 37.078,179.198 37.187,178.057 37.734 M251.375 37.577 C 250.894 37.801,250.500 38.023,250.500 38.070 C 250.500 38.117,250.631 38.098,250.792 38.026 C 251.971 37.501,252.333 37.318,252.333 37.248 C 252.333 37.131,252.334 37.131,251.375 37.577 M266.333 37.231 C 266.333 37.267,266.877 37.556,267.542 37.874 C 268.206 38.192,269.256 38.794,269.875 39.211 C 270.494 39.629,270.999 39.921,270.998 39.860 C 270.991 39.516,266.333 36.891,266.333 37.231 M155.667 37.719 C 155.667 37.752,156.351 38.184,157.187 38.679 C 158.744 39.601,161.266 41.808,162.011 42.903 C 162.234 43.230,162.478 43.498,162.553 43.499 C 163.095 43.503,159.766 40.149,158.218 39.129 C 157.106 38.397,155.667 37.602,155.667 37.719 M120.082 38.946 C 118.698 39.872,116.492 42.054,115.645 43.335 C 114.847 44.541,113.832 46.430,113.837 46.701 C 113.839 46.820,114.133 46.340,114.490 45.634 C 115.834 42.980,118.033 40.477,120.404 38.904 C 121.215 38.365,121.453 38.167,121.290 38.167 C 121.266 38.167,120.722 38.517,120.082 38.946 M249.750 38.448 C 246.768 40.049,241.833 46.125,241.833 48.197 C 241.833 48.327,241.762 48.505,241.675 48.592 C 241.588 48.679,241.475 49.087,241.424 49.500 C 241.321 50.331,241.366 50.243,241.856 48.667 C 243.089 44.694,246.160 40.866,250.101 38.385 C 250.562 38.095,250.331 38.136,249.750 38.448 M136.560 39.388 C 134.122 41.190,129.984 46.373,130.540 46.929 C 130.581 46.970,130.896 46.459,131.241 45.793 C 132.386 43.584,134.365 41.255,136.417 39.703 C 137.601 38.807,137.766 38.667,137.635 38.667 C 137.581 38.667,137.097 38.991,136.560 39.388 M175.357 39.412 C 172.693 41.373,168.666 46.748,169.034 47.851 C 169.066 47.949,169.274 47.592,169.495 47.056 C 169.716 46.521,170.163 45.644,170.490 45.107 C 170.816 44.571,171.176 43.963,171.289 43.757 C 171.678 43.049,174.381 40.316,175.440 39.560 C 176.395 38.879,176.631 38.667,176.435 38.667 C 176.399 38.667,175.914 39.002,175.357 39.412 M271.167 40.040 C 271.167 40.095,271.660 40.613,272.263 41.192 C 272.866 41.771,273.742 42.771,274.210 43.414 C 275.217 44.799,275.450 45.065,275.162 44.500 C 274.603 43.406,271.167 39.570,271.167 40.040 M192.442 43.743 C 192.358 43.963,191.822 44.002,188.714 44.016 C 186.209 44.027,184.825 44.103,184.250 44.260 C 183.792 44.385,183.642 44.446,183.917 44.395 C 184.192 44.344,186.230 44.264,188.447 44.218 C 192.390 44.135,193.080 44.024,192.608 43.552 C 192.571 43.516,192.497 43.601,192.442 43.743 M162.869 44.000 C 164.083 46.028,165.024 48.226,165.330 49.750 C 165.446 50.328,165.465 50.350,165.475 49.917 C 165.481 49.642,165.297 48.892,165.067 48.250 C 164.837 47.608,164.602 46.933,164.545 46.750 C 164.487 46.567,164.229 46.057,163.970 45.618 C 163.712 45.178,163.497 44.766,163.494 44.701 C 163.491 44.636,163.293 44.358,163.054 44.083 C 162.704 43.682,162.668 43.665,162.869 44.000 M106.750 44.009 C 105.650 44.077,104.563 44.218,104.333 44.320 C 103.927 44.503,103.929 44.505,104.417 44.419 C 104.692 44.370,105.798 44.282,106.875 44.224 C 107.952 44.165,108.833 44.054,108.833 43.975 C 108.833 43.897,108.815 43.845,108.792 43.859 C 108.769 43.872,107.850 43.940,106.750 44.009 M127.595 44.422 C 126.001 44.859,122.208 47.306,123.088 47.329 C 123.182 47.331,123.376 47.202,123.518 47.042 C 124.522 45.911,125.826 45.145,127.667 44.602 C 129.125 44.172,129.063 44.019,127.595 44.422 M102.164 45.124 C 100.198 46.107,96.652 50.041,97.220 50.609 C 97.267 50.656,97.451 50.369,97.629 49.972 C 98.118 48.879,99.407 47.267,100.468 46.423 C 101.397 45.684,101.710 45.503,103.189 44.847 C 103.589 44.669,103.803 44.518,103.664 44.512 C 103.525 44.505,102.850 44.781,102.164 45.124 M144.913 44.822 C 141.522 45.825,138.299 49.062,137.766 52.000 C 137.708 52.321,137.880 52.006,138.148 51.301 C 140.094 46.190,145.998 43.341,150.912 45.143 C 151.460 45.343,151.825 45.425,151.723 45.323 C 150.972 44.572,146.798 44.265,144.913 44.822 M181.921 45.017 C 180.344 45.815,178.889 47.089,177.846 48.583 C 177.268 49.411,176.785 50.340,176.882 50.437 C 176.922 50.478,177.171 50.077,177.436 49.547 C 178.208 48.000,180.273 46.028,182.000 45.191 C 182.779 44.812,183.304 44.505,183.167 44.508 C 183.029 44.511,182.468 44.740,181.921 45.017 M257.083 44.740 L 256.417 44.973 257.167 44.862 C 258.152 44.715,260.906 44.719,261.750 44.868 C 262.301 44.965,262.359 44.952,262.083 44.792 C 261.571 44.495,257.892 44.456,257.083 44.740 M254.857 45.544 C 249.576 48.172,247.577 55.033,250.690 59.849 C 251.797 61.561,255.313 64.409,255.764 63.959 C 255.806 63.917,255.353 63.643,254.758 63.350 C 247.470 59.762,247.663 49.282,255.083 45.655 C 255.817 45.296,256.304 45.006,256.167 45.010 C 256.029 45.013,255.440 45.254,254.857 45.544 M262.514 45.059 C 262.552 45.091,262.846 45.202,263.167 45.306 C 263.697 45.478,263.720 45.473,263.426 45.248 C 263.162 45.046,262.282 44.863,262.514 45.059 M275.583 45.499 C 275.725 45.773,275.916 46.196,276.008 46.439 C 276.101 46.681,276.216 46.839,276.266 46.790 C 276.362 46.693,275.552 45.000,275.410 45.000 C 275.363 45.000,275.441 45.224,275.583 45.499 M152.667 45.943 C 154.262 46.880,155.620 48.284,156.550 49.956 L 156.850 50.496 150.217 50.540 L 143.583 50.583 143.583 53.583 L 143.583 56.583 154.221 56.583 L 164.859 56.583 165.179 55.673 C 165.356 55.172,165.494 54.572,165.486 54.340 C 165.477 54.070,165.395 54.218,165.259 54.750 C 165.142 55.208,164.962 55.790,164.860 56.043 L 164.674 56.503 154.212 56.460 L 143.750 56.417 143.750 53.583 L 143.750 50.750 150.167 50.708 C 153.696 50.685,156.682 50.629,156.803 50.584 C 157.688 50.253,153.244 45.489,152.062 45.502 C 151.982 45.502,152.254 45.701,152.667 45.943 M264.583 45.977 C 265.496 46.530,266.796 47.709,267.643 48.750 C 267.941 49.117,268.108 49.256,268.013 49.059 C 267.532 48.063,265.072 45.894,264.055 45.569 C 263.887 45.515,264.125 45.699,264.583 45.977 M113.505 47.404 C 113.410 47.652,113.339 47.981,113.345 48.136 C 113.352 48.290,113.464 48.123,113.596 47.765 C 113.727 47.406,113.799 47.077,113.755 47.033 C 113.712 46.989,113.599 47.157,113.505 47.404 M276.333 47.045 C 276.333 47.100,276.415 47.356,276.515 47.614 C 276.614 47.872,276.838 48.608,277.013 49.250 C 277.280 50.234,277.316 50.296,277.241 49.644 C 277.135 48.722,276.333 46.427,276.333 47.045 M130.185 47.685 C 130.083 47.980,130.028 48.250,130.063 48.286 C 130.099 48.321,130.212 48.109,130.315 47.815 C 130.417 47.520,130.472 47.250,130.437 47.214 C 130.401 47.179,130.288 47.391,130.185 47.685 M122.444 48.042 C 121.952 48.699,121.448 49.686,121.147 50.583 C 120.974 51.101,120.905 53.635,120.837 61.917 L 120.750 72.583 116.750 72.583 L 112.750 72.583 112.750 61.701 C 112.750 55.716,112.693 51.093,112.624 51.428 C 112.554 51.763,112.517 56.698,112.540 62.394 L 112.583 72.750 116.750 72.750 L 120.917 72.750 121.004 62.000 C 121.083 52.391,121.123 51.163,121.380 50.431 C 121.683 49.567,122.374 48.282,122.799 47.792 C 122.938 47.631,123.006 47.500,122.951 47.500 C 122.896 47.500,122.668 47.744,122.444 48.042 M168.786 48.281 C 168.742 48.355,168.660 48.679,168.603 49.000 L 168.501 49.583 168.751 48.931 C 168.974 48.351,168.997 47.924,168.786 48.281 M89.000 49.000 C 88.754 49.912,88.885 50.042,89.152 49.152 C 89.264 48.775,89.319 48.430,89.273 48.384 C 89.226 48.337,89.104 48.615,89.000 49.000 M113.013 49.109 C 112.915 49.462,112.842 49.938,112.851 50.167 C 112.860 50.396,112.966 50.133,113.086 49.583 C 113.333 48.453,113.284 48.135,113.013 49.109 M129.662 49.183 C 129.561 49.559,129.517 49.906,129.564 49.953 C 129.612 50.001,129.699 49.824,129.757 49.561 C 129.816 49.298,129.900 48.952,129.943 48.792 C 129.987 48.631,129.983 48.500,129.934 48.500 C 129.886 48.500,129.763 48.808,129.662 49.183 M268.172 49.593 C 268.169 49.690,268.277 49.915,268.411 50.093 C 268.546 50.271,268.658 50.337,268.661 50.240 C 268.664 50.143,268.557 49.918,268.422 49.740 C 268.287 49.562,268.175 49.496,268.172 49.593 M168.265 50.104 C 168.205 50.261,168.121 50.845,168.079 51.403 L 168.002 52.417 168.241 51.171 C 168.475 49.954,168.485 49.532,168.265 50.104 M88.507 51.125 C 88.401 51.755,88.342 52.679,88.376 53.177 L 88.438 54.083 88.469 53.072 C 88.486 52.516,88.580 51.628,88.678 51.098 C 88.776 50.568,88.821 50.099,88.778 50.056 C 88.736 50.013,88.613 50.494,88.507 51.125 M129.221 50.943 C 129.021 52.114,129.091 57.487,129.314 58.083 L 129.500 58.583 129.412 58.000 C 129.189 56.532,129.140 53.297,129.319 51.853 C 129.523 50.204,129.455 49.571,129.221 50.943 M241.052 50.941 C 240.818 52.050,240.885 57.701,241.136 58.083 C 241.344 58.398,241.350 58.393,241.250 58.000 C 241.042 57.178,240.967 52.895,241.140 51.672 C 241.329 50.336,241.275 49.887,241.052 50.941 M165.562 52.167 C 165.562 53.129,165.589 53.523,165.623 53.042 C 165.657 52.560,165.657 51.773,165.623 51.292 C 165.589 50.810,165.562 51.204,165.562 52.167 M255.444 50.611 C 255.383 50.672,255.333 52.060,255.333 53.696 L 255.333 56.669 265.957 56.626 L 276.581 56.583 276.870 55.969 C 277.029 55.631,277.196 55.031,277.242 54.636 L 277.324 53.917 277.099 54.750 C 276.974 55.208,276.791 55.790,276.690 56.043 L 276.507 56.503 266.045 56.460 L 255.583 56.417 255.538 53.544 L 255.492 50.670 262.121 50.625 L 268.750 50.579 262.153 50.540 C 258.524 50.518,255.506 50.550,255.444 50.611 M277.401 52.167 C 277.399 53.745,277.413 53.824,277.539 52.971 C 277.616 52.451,277.617 51.664,277.541 51.221 C 277.427 50.549,277.404 50.704,277.401 52.167 M176.501 51.329 C 176.398 51.712,176.344 52.113,176.382 52.221 C 176.419 52.328,176.531 52.043,176.630 51.585 C 176.851 50.562,176.758 50.376,176.501 51.329 M96.941 51.112 C 96.770 51.692,96.630 52.667,96.718 52.667 C 96.832 52.667,97.196 50.974,97.102 50.880 C 97.063 50.840,96.990 50.945,96.941 51.112 M176.107 53.125 C 175.982 53.882,176.000 55.070,176.148 55.750 C 176.208 56.025,176.257 55.406,176.258 54.375 C 176.260 52.290,176.254 52.237,176.107 53.125 M137.438 53.042 C 137.304 53.544,137.328 56.176,137.470 56.535 C 137.532 56.692,137.583 55.886,137.583 54.744 C 137.583 52.482,137.585 52.496,137.438 53.042 M96.558 54.333 C 96.558 55.112,96.587 55.431,96.622 55.042 C 96.657 54.652,96.657 54.015,96.622 53.625 C 96.587 53.235,96.558 53.554,96.558 54.333 M167.885 54.250 C 167.886 54.800,167.917 55.005,167.954 54.705 C 167.991 54.406,167.990 53.956,167.952 53.705 C 167.914 53.455,167.884 53.700,167.885 54.250 M88.385 55.917 C 88.386 56.467,88.417 56.672,88.454 56.372 C 88.491 56.072,88.490 55.622,88.452 55.372 C 88.414 55.122,88.384 55.367,88.385 55.917 M96.779 56.744 C 96.836 57.108,97.063 57.783,97.282 58.244 C 97.709 59.143,97.706 59.087,97.247 57.667 C 96.793 56.259,96.659 55.997,96.779 56.744 M168.083 57.213 C 168.123 57.834,168.234 58.471,168.331 58.629 C 168.516 58.932,168.500 58.770,168.163 56.917 C 168.017 56.118,168.014 56.130,168.083 57.213 M176.428 57.000 C 177.087 60.345,180.782 63.827,184.292 64.411 C 185.349 64.587,185.147 64.387,184.042 64.164 C 180.883 63.526,176.684 59.573,176.664 57.219 C 176.663 57.053,176.583 56.804,176.487 56.667 C 176.359 56.483,176.344 56.571,176.428 57.000 M196.116 56.958 C 196.065 57.210,195.970 57.567,195.904 57.750 C 195.820 57.983,195.838 58.033,195.963 57.917 C 196.146 57.745,196.434 56.500,196.289 56.500 C 196.245 56.500,196.167 56.706,196.116 56.958 M88.514 57.309 C 88.489 58.027,89.352 61.019,89.696 61.410 C 89.774 61.499,89.648 61.014,89.417 60.334 C 89.185 59.653,88.891 58.606,88.762 58.007 C 88.633 57.407,88.521 57.093,88.514 57.309 M137.771 57.500 C 137.998 58.781,139.558 61.132,140.858 62.153 C 142.103 63.131,142.119 63.106,140.948 62.012 C 139.507 60.666,138.547 59.262,137.917 57.583 L 137.668 56.917 137.771 57.500 M204.436 57.458 C 204.226 58.517,204.161 59.248,204.307 58.917 C 204.483 58.516,204.720 57.000,204.607 57.000 C 204.563 57.000,204.486 57.206,204.436 57.458 M195.341 58.958 C 194.553 60.487,193.285 61.882,191.792 62.867 C 190.815 63.511,190.763 63.653,191.693 63.136 C 193.146 62.327,196.018 58.971,195.805 58.331 C 195.775 58.240,195.566 58.522,195.341 58.958 M241.346 58.756 C 241.304 59.863,243.068 63.525,244.644 65.602 C 245.702 66.996,248.275 69.447,248.472 69.250 C 248.522 69.200,248.380 69.034,248.157 68.880 C 245.665 67.173,242.851 63.206,241.856 60.000 C 241.671 59.404,241.483 58.804,241.440 58.667 C 241.386 58.500,241.355 58.530,241.346 58.756 M129.595 59.167 C 129.656 59.487,129.775 59.862,129.860 60.000 C 129.963 60.166,129.978 60.054,129.905 59.667 C 129.844 59.346,129.725 58.971,129.640 58.833 C 129.537 58.667,129.522 58.779,129.595 59.167 M168.593 59.583 C 168.648 59.950,168.767 60.325,168.858 60.417 C 169.038 60.598,168.896 59.841,168.639 59.250 C 168.542 59.027,168.527 59.136,168.593 59.583 M97.949 59.701 C 98.739 61.105,101.716 63.583,103.000 63.907 C 103.229 63.965,102.974 63.782,102.432 63.501 C 100.557 62.527,98.706 60.829,98.118 59.542 C 98.024 59.335,97.879 59.167,97.797 59.167 C 97.715 59.167,97.783 59.407,97.949 59.701 M203.839 59.980 C 202.625 64.486,198.218 69.272,193.439 71.273 C 192.256 71.769,192.045 71.911,192.750 71.737 C 195.333 71.100,199.666 67.703,201.664 64.750 C 202.902 62.920,204.383 59.660,204.103 59.380 C 204.058 59.336,203.939 59.606,203.839 59.980 M130.096 60.667 C 130.157 60.896,130.276 61.196,130.361 61.333 C 130.469 61.507,130.482 61.456,130.404 61.167 C 130.343 60.938,130.224 60.637,130.139 60.500 C 130.031 60.326,130.018 60.377,130.096 60.667 M169.005 60.833 C 168.995 61.425,170.718 64.404,171.989 65.994 C 173.438 67.807,176.469 70.290,177.750 70.714 C 178.139 70.842,178.240 70.915,176.193 69.592 C 173.600 67.917,171.098 64.989,169.650 61.934 C 169.297 61.191,169.007 60.696,169.005 60.833 M89.914 61.981 C 90.041 62.393,91.137 64.333,91.243 64.333 C 91.312 64.333,90.014 61.793,89.880 61.667 C 89.832 61.621,89.847 61.762,89.914 61.981 M130.500 61.729 C 130.500 61.896,131.159 63.167,131.245 63.167 C 131.285 63.167,131.182 62.866,131.018 62.498 C 130.719 61.831,130.500 61.506,130.500 61.729 M142.167 63.091 C 142.167 63.411,145.602 64.610,146.057 64.449 C 146.163 64.412,145.800 64.287,145.250 64.172 C 144.700 64.056,143.781 63.750,143.208 63.491 C 142.635 63.233,142.167 63.052,142.167 63.091 M131.686 63.958 C 132.373 65.090,133.383 66.391,134.240 67.250 C 135.296 68.308,136.667 69.423,136.667 69.223 C 136.667 69.140,136.457 68.948,136.201 68.797 C 135.445 68.350,132.965 65.674,132.180 64.458 C 131.414 63.273,131.037 62.891,131.686 63.958 M190.184 63.681 C 189.965 63.769,189.827 63.882,189.878 63.933 C 189.929 63.984,190.183 63.911,190.444 63.770 C 190.967 63.486,190.808 63.431,190.184 63.681 M103.750 64.146 C 103.933 64.223,104.383 64.333,104.750 64.390 C 105.173 64.456,105.295 64.443,105.083 64.354 C 104.900 64.277,104.450 64.167,104.083 64.110 C 103.660 64.044,103.538 64.057,103.750 64.146 M188.519 64.180 C 188.116 64.259,187.741 64.372,187.685 64.431 C 187.559 64.563,188.959 64.341,189.417 64.156 C 189.842 63.984,189.467 63.994,188.519 64.180 M256.250 64.145 C 256.433 64.225,256.921 64.338,257.333 64.396 C 257.821 64.465,257.967 64.450,257.750 64.355 C 257.567 64.275,257.079 64.162,256.667 64.104 C 256.179 64.035,256.033 64.050,256.250 64.145 M91.479 64.792 C 92.142 66.022,95.208 68.970,96.875 69.982 C 97.726 70.497,97.667 70.324,96.792 69.736 C 95.005 68.536,93.439 67.069,92.134 65.375 C 91.453 64.490,91.191 64.257,91.479 64.792 M107.245 64.625 C 108.040 64.659,108.624 64.763,108.701 64.883 C 108.788 65.020,108.829 64.991,108.831 64.792 C 108.833 64.533,108.666 64.504,107.375 64.534 L 105.917 64.567 107.245 64.625 M152.542 64.625 L 158.333 64.671 158.333 68.684 L 158.333 72.697 151.375 72.616 C 147.548 72.572,144.192 72.488,143.917 72.431 C 143.423 72.328,143.422 72.329,143.833 72.531 C 144.137 72.680,146.186 72.753,151.375 72.797 L 158.500 72.858 158.500 68.679 L 158.500 64.500 152.625 64.539 L 146.750 64.579 152.542 64.625 M185.875 64.619 C 186.127 64.658,186.540 64.658,186.792 64.619 C 187.044 64.581,186.838 64.550,186.333 64.550 C 185.829 64.550,185.623 64.581,185.875 64.619 M264.292 64.624 L 270.167 64.671 270.167 68.684 L 270.167 72.697 263.208 72.616 C 259.381 72.572,256.025 72.488,255.750 72.431 C 255.257 72.328,255.256 72.329,255.667 72.530 C 255.975 72.681,257.931 72.736,263.167 72.742 L 270.250 72.750 270.250 68.667 L 270.250 64.583 264.333 64.580 L 258.417 64.577 264.292 64.624 M229.590 67.708 C 229.919 69.247,231.450 71.447,232.960 72.553 C 233.914 73.251,235.147 73.908,235.271 73.785 C 235.321 73.735,235.014 73.541,234.589 73.353 C 232.559 72.455,230.388 69.951,229.841 67.875 C 229.622 67.048,229.419 66.913,229.590 67.708 M220.846 68.834 C 220.828 69.193,221.433 71.251,221.664 71.612 C 221.778 71.791,221.828 71.813,221.784 71.667 C 221.743 71.529,221.578 70.967,221.416 70.417 C 220.938 68.786,220.860 68.571,220.846 68.834 M136.890 69.456 C 137.186 69.936,141.217 72.006,141.433 71.789 C 141.468 71.754,141.066 71.552,140.540 71.339 C 139.694 70.997,138.423 70.307,137.173 69.511 C 136.927 69.354,136.814 69.332,136.890 69.456 M248.779 69.502 C 249.051 69.847,250.000 70.386,250.000 70.196 C 250.000 70.109,249.869 69.995,249.708 69.942 C 249.548 69.889,249.229 69.712,249.000 69.550 C 248.718 69.350,248.647 69.334,248.779 69.502 M97.667 70.419 C 97.667 70.550,99.363 71.360,99.451 71.271 C 99.525 71.197,99.234 71.041,97.958 70.474 C 97.798 70.402,97.667 70.378,97.667 70.419 M250.167 70.414 C 250.167 70.534,251.855 71.367,251.936 71.286 C 251.974 71.248,251.622 71.018,251.154 70.775 C 250.271 70.317,250.167 70.279,250.167 70.414 M178.258 70.979 C 178.506 71.208,181.017 72.137,181.667 72.240 C 181.987 72.291,181.606 72.116,180.819 71.852 C 180.032 71.587,179.154 71.249,178.869 71.102 C 178.301 70.808,178.009 70.750,178.258 70.979 M99.833 71.472 C 99.971 71.557,100.271 71.676,100.500 71.738 C 100.790 71.815,100.840 71.802,100.667 71.695 C 100.529 71.610,100.229 71.490,100.000 71.429 C 99.710 71.351,99.660 71.365,99.833 71.472 M252.333 71.478 C 252.739 71.719,253.441 71.895,253.250 71.707 C 253.158 71.617,252.858 71.495,252.583 71.436 C 252.257 71.366,252.170 71.380,252.333 71.478 M101.167 71.984 C 101.513 72.184,102.659 72.393,102.333 72.197 C 102.196 72.114,101.821 71.999,101.500 71.942 C 101.137 71.878,101.011 71.894,101.167 71.984 M141.833 71.978 C 141.971 72.065,142.383 72.182,142.750 72.238 C 143.205 72.307,143.311 72.292,143.083 72.191 C 142.572 71.964,141.532 71.786,141.833 71.978 M191.083 72.092 L 190.417 72.325 191.083 72.230 C 191.783 72.132,192.498 71.836,192.000 71.851 C 191.862 71.855,191.450 71.964,191.083 72.092 M253.667 71.988 C 253.804 72.069,254.217 72.182,254.583 72.238 C 255.026 72.305,255.138 72.291,254.917 72.195 C 254.427 71.982,253.361 71.806,253.667 71.988 M221.833 72.065 C 221.833 72.257,222.837 74.233,223.028 74.417 C 223.123 74.508,222.922 74.021,222.581 73.333 C 221.940 72.041,221.833 71.860,221.833 72.065 M103.167 72.513 C 103.996 72.886,108.834 72.930,108.831 72.565 C 108.829 72.317,108.797 72.300,108.680 72.483 C 108.535 72.713,104.649 72.665,103.250 72.415 C 102.762 72.328,102.760 72.331,103.167 72.513 M182.667 72.542 C 183.234 72.794,189.439 72.793,190.000 72.540 C 190.335 72.389,190.204 72.375,189.333 72.468 C 187.951 72.615,184.924 72.616,183.417 72.470 C 182.492 72.381,182.336 72.395,182.667 72.542 M235.696 74.006 C 235.849 74.096,236.449 74.205,237.029 74.249 L 238.083 74.330 236.917 74.095 C 235.497 73.809,235.337 73.797,235.696 74.006 M223.537 75.340 C 225.544 78.900,231.789 83.036,235.715 83.405 L 236.583 83.487 235.583 83.272 C 230.850 82.256,226.381 79.307,223.893 75.558 C 223.194 74.505,222.998 74.386,223.537 75.340 M237.500 83.500 L 236.750 83.617 237.542 83.642 C 237.977 83.655,238.333 83.592,238.333 83.500 C 238.333 83.408,238.315 83.345,238.292 83.358 C 238.269 83.372,237.912 83.436,237.500 83.500 " stroke="none" fill="#98d2d9" fill-rule="evenodd"></path><path id="path4" d="M196.523 17.389 C 196.385 17.555,196.322 22.823,196.290 36.933 L 196.246 56.250 195.807 57.437 C 195.565 58.091,195.282 58.784,195.178 58.979 C 195.074 59.174,195.027 59.333,195.074 59.333 C 195.212 59.333,195.771 58.158,196.105 57.167 C 196.395 56.302,196.418 55.149,196.498 36.833 L 196.583 17.417 200.667 17.417 L 204.750 17.417 204.750 37.083 C 204.750 47.900,204.697 57.087,204.631 57.500 C 204.527 58.160,204.537 58.200,204.715 57.833 C 204.983 57.281,205.175 18.121,204.912 17.594 C 204.692 17.152,196.878 16.961,196.523 17.389 M208.442 28.292 C 208.399 28.360,209.576 28.397,211.057 28.374 C 216.089 28.294,216.593 28.235,212.552 28.201 C 210.334 28.182,208.485 28.223,208.442 28.292 M220.611 28.289 C 220.567 28.359,222.512 28.396,224.932 28.370 L 229.333 28.323 229.333 33.333 C 229.333 37.192,229.381 38.360,229.542 38.416 C 229.918 38.546,234.804 38.586,234.725 38.458 C 234.682 38.390,233.568 38.333,232.250 38.333 C 230.515 38.333,229.816 38.276,229.718 38.125 C 229.644 38.010,229.546 35.742,229.500 33.083 L 229.417 28.250 225.053 28.206 C 222.653 28.181,220.654 28.219,220.611 28.289 M281.109 28.292 C 281.067 28.360,282.930 28.417,285.250 28.417 C 287.570 28.417,289.433 28.360,289.391 28.292 C 289.348 28.223,287.485 28.167,285.250 28.167 C 283.015 28.167,281.152 28.223,281.109 28.292 M208.246 42.583 C 208.246 50.283,208.267 53.409,208.292 49.529 C 208.317 45.649,208.317 39.349,208.292 35.529 C 208.267 31.709,208.246 34.883,208.246 42.583 M216.746 42.583 C 216.746 50.100,216.767 53.151,216.792 49.363 C 216.817 45.574,216.817 39.424,216.792 35.696 C 216.767 31.967,216.746 35.067,216.746 42.583 M280.879 30.167 C 280.879 30.579,280.911 30.748,280.951 30.542 C 280.991 30.335,280.991 29.998,280.951 29.792 C 280.911 29.585,280.879 29.754,280.879 30.167 M220.414 47.167 C 220.414 56.837,220.434 60.794,220.458 55.958 C 220.483 51.123,220.483 43.210,220.458 38.375 C 220.434 33.540,220.414 37.496,220.414 47.167 M105.708 35.790 C 106.235 35.823,107.098 35.823,107.625 35.790 C 108.152 35.757,107.721 35.730,106.667 35.730 C 105.612 35.730,105.181 35.757,105.708 35.790 M146.375 35.790 C 146.902 35.823,147.765 35.823,148.292 35.790 C 148.819 35.757,148.387 35.730,147.333 35.730 C 146.279 35.730,145.848 35.757,146.375 35.790 M186.292 35.791 C 187.415 35.820,189.252 35.820,190.375 35.791 C 191.498 35.762,190.579 35.739,188.333 35.739 C 186.088 35.739,185.169 35.762,186.292 35.791 M258.381 35.790 C 258.912 35.823,259.737 35.823,260.214 35.789 C 260.692 35.756,260.258 35.729,259.250 35.729 C 258.242 35.729,257.851 35.757,258.381 35.790 M102.583 36.079 C 101.688 36.374,102.203 36.386,103.250 36.095 C 103.749 35.956,103.916 35.862,103.667 35.861 C 103.438 35.860,102.950 35.958,102.583 36.079 M126.250 36.086 L 125.583 36.313 126.250 36.214 C 126.617 36.159,127.104 36.058,127.333 35.988 L 127.750 35.862 127.333 35.860 C 127.104 35.860,126.617 35.961,126.250 36.086 M143.690 36.025 C 142.793 36.283,143.170 36.336,144.171 36.092 C 144.673 35.970,144.896 35.869,144.667 35.867 C 144.438 35.865,143.998 35.936,143.690 36.025 M150.750 36.087 C 152.012 36.371,152.457 36.367,151.583 36.079 C 151.217 35.958,150.654 35.859,150.333 35.860 C 149.870 35.861,149.956 35.908,150.750 36.087 M182.250 36.086 L 181.583 36.313 182.250 36.214 C 182.617 36.159,183.104 36.058,183.333 35.988 L 183.750 35.862 183.333 35.860 C 183.104 35.860,182.617 35.961,182.250 36.086 M255.533 35.998 C 255.231 36.069,254.931 36.181,254.867 36.246 C 254.744 36.369,255.787 36.205,256.500 35.988 L 256.917 35.862 256.500 35.865 C 256.271 35.866,255.836 35.926,255.533 35.998 M262.583 36.087 C 263.710 36.377,264.298 36.363,263.250 36.072 C 262.792 35.944,262.267 35.847,262.083 35.856 C 261.900 35.865,262.125 35.969,262.583 36.087 M108.833 40.028 C 108.833 42.243,108.874 44.015,108.924 43.965 C 109.065 43.824,109.099 36.000,108.958 36.000 C 108.890 36.000,108.833 37.813,108.833 40.028 M100.750 36.577 C 100.475 36.703,100.362 36.809,100.500 36.812 C 100.638 36.816,100.975 36.715,101.250 36.589 C 101.525 36.463,101.638 36.358,101.500 36.354 C 101.362 36.351,101.025 36.451,100.750 36.577 M124.542 36.505 C 123.965 36.737,124.098 36.839,124.708 36.633 C 125.006 36.533,125.281 36.424,125.319 36.392 C 125.455 36.278,124.911 36.357,124.542 36.505 M141.667 36.583 C 141.147 36.880,141.396 36.880,142.167 36.583 C 142.549 36.436,142.635 36.356,142.417 36.352 C 142.233 36.348,141.896 36.452,141.667 36.583 M152.500 36.405 C 152.500 36.444,152.894 36.591,153.375 36.732 C 157.271 37.872,161.768 41.489,163.623 44.976 C 164.026 45.733,164.458 46.588,164.729 47.167 C 164.911 47.554,164.970 47.610,164.905 47.333 C 164.361 45.031,159.870 39.409,158.129 38.851 C 158.012 38.814,157.879 38.729,157.833 38.663 C 157.450 38.109,152.500 36.013,152.500 36.405 M180.417 36.577 C 179.773 36.872,180.072 36.876,180.833 36.583 C 181.154 36.460,181.304 36.356,181.167 36.354 C 181.029 36.351,180.692 36.451,180.417 36.577 M253.417 36.589 C 253.142 36.715,253.029 36.818,253.167 36.818 C 253.304 36.818,253.642 36.715,253.917 36.589 C 254.192 36.463,254.304 36.360,254.167 36.360 C 254.029 36.360,253.692 36.463,253.417 36.589 M264.750 36.589 C 265.025 36.715,265.362 36.816,265.500 36.812 C 265.637 36.809,265.525 36.703,265.250 36.577 C 264.975 36.451,264.637 36.351,264.500 36.354 C 264.362 36.358,264.475 36.463,264.750 36.589 M99.574 37.075 C 99.261 37.308,99.263 37.313,99.628 37.222 C 99.835 37.169,100.046 37.060,100.096 36.980 C 100.237 36.752,99.932 36.807,99.574 37.075 M122.458 37.312 C 119.341 38.951,117.183 40.817,115.397 43.417 C 114.638 44.522,113.938 45.827,114.047 45.936 C 114.085 45.974,114.313 45.626,114.554 45.163 C 116.227 41.937,118.967 39.311,122.500 37.547 C 123.279 37.158,123.793 36.838,123.642 36.836 C 123.491 36.835,122.958 37.049,122.458 37.312 M140.260 37.089 C 139.850 37.398,139.978 37.399,140.689 37.090 C 141.077 36.921,141.147 36.846,140.917 36.845 C 140.733 36.844,140.438 36.954,140.260 37.089 M179.074 37.078 C 178.659 37.391,178.955 37.395,179.500 37.083 C 179.767 36.931,179.823 36.843,179.657 36.839 C 179.514 36.836,179.251 36.943,179.074 37.078 M252.184 37.014 C 251.965 37.102,251.827 37.216,251.878 37.267 C 251.929 37.318,252.183 37.244,252.444 37.103 C 252.967 36.819,252.808 36.765,252.184 37.014 M98.007 37.771 C 97.136 38.390,97.164 38.416,98.167 37.917 C 99.262 37.371,99.316 37.329,98.903 37.348 C 98.727 37.355,98.324 37.546,98.007 37.771 M268.290 38.076 C 271.198 39.638,273.911 42.223,275.334 44.790 C 275.550 45.178,275.759 45.464,275.799 45.424 C 275.898 45.324,275.257 44.287,274.352 43.083 C 272.648 40.816,270.027 38.614,267.937 37.692 C 266.663 37.130,266.794 37.273,268.290 38.076 M138.046 38.164 C 137.243 38.597,135.745 39.761,134.775 40.705 C 134.098 41.365,134.198 41.305,135.250 40.423 C 135.983 39.808,137.090 39.002,137.708 38.633 C 138.753 38.010,139.018 37.803,138.708 37.854 C 138.640 37.865,138.341 38.005,138.046 38.164 M176.239 38.603 C 174.106 40.024,173.307 40.767,171.510 43.000 C 170.168 44.667,168.110 48.697,168.827 48.254 C 168.922 48.195,169.000 48.028,169.000 47.883 C 169.000 46.031,173.070 40.917,176.199 38.838 C 177.032 38.286,177.641 37.833,177.554 37.833 C 177.467 37.833,176.875 38.180,176.239 38.603 M250.167 37.980 C 250.167 38.060,249.939 38.220,249.661 38.336 C 249.383 38.451,249.189 38.578,249.229 38.617 C 249.311 38.700,250.667 38.036,250.667 37.913 C 250.667 37.869,250.554 37.833,250.417 37.833 C 250.279 37.833,250.167 37.899,250.167 37.980 M95.824 39.202 C 94.610 40.053,92.000 42.559,92.000 42.874 C 92.000 42.962,92.529 42.467,93.176 41.775 C 93.822 41.082,94.929 40.088,95.634 39.565 C 97.052 38.514,97.273 38.333,97.149 38.333 C 97.103 38.333,96.506 38.724,95.824 39.202 M235.006 39.083 C 235.140 39.267,235.313 39.463,235.389 39.519 C 235.466 39.575,235.525 39.687,235.520 39.769 C 235.510 39.936,238.000 44.167,238.108 44.167 C 238.204 44.167,237.941 43.690,236.896 41.966 C 236.407 41.159,235.961 40.319,235.906 40.101 C 235.851 39.882,235.572 39.489,235.285 39.227 C 234.998 38.964,234.872 38.900,235.006 39.083 M248.027 39.419 C 245.798 41.172,243.616 43.778,242.672 45.813 C 242.132 46.977,242.276 46.843,243.079 45.434 C 244.352 43.200,246.279 40.941,248.000 39.664 C 248.999 38.922,249.100 38.832,248.908 38.842 C 248.821 38.847,248.425 39.106,248.027 39.419 M133.074 42.456 C 131.976 43.761,131.803 44.000,131.954 44.000 C 132.033 44.000,132.393 43.614,132.753 43.141 C 133.113 42.669,133.513 42.178,133.640 42.050 C 133.768 41.922,133.841 41.785,133.802 41.746 C 133.762 41.707,133.435 42.026,133.074 42.456 M90.961 44.375 C 90.230 45.584,89.945 46.167,90.085 46.167 C 90.126 46.167,90.320 45.848,90.517 45.458 C 90.713 45.069,91.127 44.394,91.436 43.958 C 91.746 43.523,91.930 43.167,91.846 43.167 C 91.761 43.167,91.363 43.710,90.961 44.375 M106.547 44.289 C 106.985 44.324,107.660 44.323,108.047 44.288 C 108.434 44.254,108.075 44.225,107.250 44.226 C 106.425 44.226,106.109 44.255,106.547 44.289 M131.628 44.458 C 131.339 44.787,130.449 46.507,130.530 46.581 C 130.560 46.607,130.894 46.075,131.274 45.398 C 131.653 44.721,131.946 44.167,131.925 44.167 C 131.903 44.167,131.769 44.298,131.628 44.458 M187.032 44.291 C 188.013 44.320,189.663 44.320,190.699 44.291 C 191.735 44.262,190.933 44.238,188.917 44.238 C 186.900 44.238,186.052 44.262,187.032 44.291 M104.200 44.498 C 103.377 44.693,103.373 44.818,104.195 44.712 C 105.127 44.591,105.791 44.351,105.167 44.361 C 104.938 44.365,104.502 44.426,104.200 44.498 M127.750 44.583 L 127.083 44.807 127.833 44.715 C 128.246 44.665,128.655 44.559,128.742 44.479 C 128.967 44.272,128.543 44.317,127.750 44.583 M183.700 44.498 C 183.397 44.569,183.103 44.675,183.045 44.732 C 182.935 44.843,183.800 44.697,184.500 44.487 C 185.079 44.313,184.442 44.322,183.700 44.498 M238.372 44.667 C 239.605 46.810,239.713 46.962,239.550 46.339 C 239.503 46.158,239.360 45.924,239.232 45.818 C 239.104 45.712,239.000 45.541,238.999 45.438 C 238.999 45.335,238.803 45.025,238.565 44.750 C 238.207 44.337,238.174 44.323,238.372 44.667 M146.875 44.789 C 147.310 44.824,148.023 44.824,148.458 44.789 C 148.894 44.755,148.537 44.727,147.667 44.727 C 146.796 44.727,146.440 44.755,146.875 44.789 M258.292 44.784 C 258.498 44.824,258.835 44.824,259.042 44.784 C 259.248 44.745,259.079 44.712,258.667 44.712 C 258.254 44.712,258.085 44.745,258.292 44.784 M260.127 44.785 C 260.334 44.824,260.634 44.823,260.794 44.781 C 260.953 44.739,260.783 44.707,260.417 44.709 C 260.050 44.711,259.920 44.745,260.127 44.785 M102.273 45.253 C 100.589 46.088,99.190 47.401,98.022 49.242 C 97.493 50.077,97.399 50.334,97.625 50.333 C 97.694 50.332,97.881 50.014,98.042 49.624 C 98.286 49.032,98.666 48.511,99.628 47.449 C 100.313 46.693,101.438 45.825,101.950 45.658 C 102.546 45.464,103.551 44.823,103.231 44.842 C 103.150 44.847,102.719 45.032,102.273 45.253 M126.250 45.089 C 125.833 45.290,125.819 45.313,126.167 45.228 C 126.639 45.113,127.170 44.842,126.917 44.846 C 126.825 44.847,126.525 44.957,126.250 45.089 M144.667 45.091 L 144.083 45.323 144.750 45.225 C 145.117 45.171,145.488 45.060,145.575 44.980 C 145.809 44.764,145.346 44.820,144.667 45.091 M149.750 44.952 C 149.842 45.041,150.367 45.249,150.917 45.413 C 151.467 45.578,152.010 45.786,152.125 45.877 C 152.264 45.986,152.333 45.982,152.333 45.866 C 152.333 45.769,151.924 45.537,151.423 45.350 C 150.243 44.909,149.531 44.739,149.750 44.952 M181.583 45.375 C 180.549 45.925,178.206 48.095,177.850 48.833 C 177.682 49.180,177.712 49.166,178.031 48.750 C 178.905 47.606,180.636 46.107,181.708 45.565 C 182.738 45.044,183.038 44.826,182.708 44.838 C 182.640 44.840,182.133 45.082,181.583 45.375 M256.228 45.153 C 255.365 45.464,254.385 45.973,255.057 45.762 C 255.226 45.709,255.564 45.617,255.807 45.557 C 256.051 45.497,256.287 45.398,256.333 45.336 C 256.379 45.275,256.754 45.145,257.167 45.049 C 257.646 44.937,257.766 44.868,257.500 44.859 C 257.271 44.852,256.699 44.984,256.228 45.153 M261.500 44.990 C 261.637 45.070,262.050 45.181,262.417 45.236 L 263.083 45.335 262.500 45.097 C 261.832 44.824,261.079 44.744,261.500 44.990 M125.167 45.634 C 123.537 46.740,121.153 49.709,121.564 50.120 C 121.621 50.176,121.667 50.140,121.667 50.040 C 121.667 49.939,121.760 49.758,121.875 49.637 C 121.990 49.516,122.194 49.192,122.329 48.917 C 122.732 48.096,124.129 46.555,124.924 46.052 C 125.332 45.794,125.666 45.527,125.666 45.458 C 125.667 45.297,125.659 45.300,125.167 45.634 M142.716 45.925 C 140.266 47.313,137.603 50.987,137.674 52.880 C 137.679 52.992,137.931 52.432,138.235 51.637 C 139.292 48.870,142.153 45.698,143.615 45.670 C 143.724 45.668,143.860 45.592,143.917 45.500 C 144.096 45.210,143.780 45.321,142.716 45.925 M263.167 45.397 C 263.167 45.432,263.594 45.675,264.117 45.938 C 265.208 46.488,266.816 47.909,267.360 48.804 C 267.565 49.141,267.783 49.454,267.844 49.500 C 268.145 49.725,268.170 50.309,267.882 50.384 C 267.714 50.427,267.813 50.470,268.107 50.481 L 268.631 50.500 268.329 49.908 C 267.874 49.016,266.776 47.658,265.963 46.980 C 264.984 46.165,263.167 45.136,263.167 45.397 M276.275 46.625 C 276.738 47.675,276.946 47.985,276.749 47.333 C 276.528 46.599,276.092 45.667,275.970 45.667 C 275.905 45.667,276.042 46.098,276.275 46.625 M152.500 45.975 C 152.500 46.047,152.811 46.280,153.192 46.494 C 153.572 46.708,153.835 46.804,153.776 46.708 C 153.624 46.463,152.500 45.817,152.500 45.975 M253.560 46.555 C 252.162 47.588,250.848 49.134,250.448 50.217 C 250.249 50.756,250.587 50.375,250.962 49.637 C 251.544 48.491,253.902 46.167,254.482 46.167 C 254.584 46.167,254.667 46.092,254.667 46.000 C 254.667 45.749,254.615 45.775,253.560 46.555 M89.694 46.757 C 89.414 47.370,89.468 47.501,89.770 46.944 C 89.911 46.683,89.995 46.439,89.957 46.401 C 89.919 46.363,89.800 46.523,89.694 46.757 M130.202 47.172 C 130.091 47.350,130.003 47.628,130.007 47.789 C 130.010 47.956,130.120 47.837,130.259 47.516 C 130.537 46.875,130.506 46.685,130.202 47.172 M154.000 46.936 C 154.000 47.025,154.342 47.432,154.760 47.840 C 155.178 48.249,155.674 48.831,155.862 49.134 C 156.051 49.437,156.242 49.647,156.287 49.602 C 156.386 49.503,155.040 47.741,154.435 47.179 C 154.196 46.957,154.000 46.848,154.000 46.936 M241.854 47.500 C 241.751 47.775,241.584 48.221,241.483 48.492 C 241.382 48.762,241.339 49.081,241.387 49.200 C 241.435 49.319,241.480 49.252,241.487 49.052 C 241.494 48.851,241.575 48.640,241.667 48.583 C 241.758 48.527,241.834 48.354,241.834 48.198 C 241.835 48.043,241.943 47.710,242.074 47.458 C 242.206 47.206,242.252 47.000,242.177 47.000 C 242.102 47.000,241.956 47.225,241.854 47.500 M229.444 47.278 C 229.383 47.339,229.351 51.520,229.372 56.569 L 229.411 65.750 229.497 56.750 C 229.545 51.800,229.642 47.660,229.713 47.550 C 229.808 47.404,231.124 47.348,234.703 47.338 C 237.376 47.331,239.599 47.290,239.643 47.246 C 239.686 47.202,237.435 47.167,234.639 47.167 C 231.843 47.167,229.506 47.217,229.444 47.278 M113.240 47.772 C 113.179 48.035,113.034 48.550,112.917 48.917 C 112.800 49.283,112.662 50.071,112.611 50.667 C 112.521 51.717,112.523 51.725,112.680 50.917 C 112.870 49.932,113.121 48.809,113.331 48.005 C 113.414 47.686,113.452 47.396,113.416 47.360 C 113.379 47.324,113.300 47.509,113.240 47.772 M89.240 47.768 C 89.184 47.941,89.036 48.346,88.911 48.667 C 88.786 48.987,88.645 49.587,88.596 50.000 C 88.519 50.661,88.545 50.622,88.817 49.667 C 88.987 49.071,89.212 48.367,89.317 48.102 C 89.423 47.837,89.471 47.583,89.425 47.536 C 89.379 47.490,89.296 47.594,89.240 47.768 M165.003 47.925 C 165.004 48.012,165.120 48.383,165.260 48.750 L 165.515 49.417 165.430 48.764 C 165.357 48.197,164.996 47.489,165.003 47.925 M276.913 48.250 C 276.983 48.433,277.106 48.808,277.184 49.083 C 277.313 49.531,277.320 49.516,277.253 48.931 C 277.212 48.572,277.090 48.197,276.982 48.098 C 276.833 47.961,276.816 47.998,276.913 48.250 M129.680 48.475 C 129.581 48.660,129.503 48.985,129.507 49.197 C 129.513 49.480,129.578 49.407,129.750 48.923 C 130.007 48.201,129.966 47.940,129.680 48.475 M168.398 49.125 C 168.334 49.469,168.180 49.991,168.057 50.286 C 167.926 50.602,167.843 51.357,167.857 52.120 L 167.881 53.417 168.006 51.898 C 168.074 51.062,168.204 50.237,168.293 50.064 C 168.486 49.692,168.718 48.500,168.598 48.500 C 168.553 48.500,168.462 48.781,168.398 49.125 M177.333 49.667 C 177.227 49.866,177.177 50.066,177.223 50.112 C 177.269 50.158,177.393 50.032,177.500 49.833 C 177.607 49.634,177.656 49.434,177.610 49.388 C 177.565 49.342,177.440 49.468,177.333 49.667 M241.016 50.442 C 240.894 51.006,240.835 51.569,240.884 51.692 C 240.933 51.816,240.980 51.722,240.987 51.483 C 240.994 51.245,241.081 50.817,241.180 50.532 C 241.280 50.248,241.333 49.880,241.299 49.716 C 241.265 49.551,241.138 49.878,241.016 50.442 M129.164 50.529 C 129.055 51.017,129.001 51.604,129.044 51.833 C 129.105 52.164,129.126 52.130,129.145 51.667 C 129.158 51.346,129.249 50.795,129.346 50.443 C 129.444 50.090,129.488 49.766,129.444 49.721 C 129.399 49.677,129.274 50.040,129.164 50.529 M165.583 51.968 C 165.583 53.223,165.528 54.512,165.461 54.833 C 165.359 55.322,165.371 55.363,165.533 55.086 C 165.767 54.687,165.923 50.570,165.724 50.051 C 165.637 49.825,165.583 50.552,165.583 51.968 M156.379 50.167 C 156.393 50.350,156.503 50.500,156.625 50.500 C 156.793 50.500,156.803 50.422,156.667 50.167 C 156.569 49.983,156.458 49.833,156.421 49.833 C 156.384 49.833,156.365 49.983,156.379 50.167 M277.437 50.667 C 277.573 51.600,277.667 51.733,277.664 50.986 C 277.663 50.673,277.587 50.304,277.495 50.167 C 277.379 49.992,277.361 50.143,277.437 50.667 M176.838 50.738 C 176.744 50.986,176.672 51.315,176.678 51.469 C 176.685 51.624,176.798 51.457,176.929 51.098 C 177.060 50.739,177.132 50.410,177.089 50.366 C 177.045 50.323,176.932 50.490,176.838 50.738 M97.253 50.708 C 96.561 52.783,96.592 58.464,97.291 57.764 C 97.342 57.713,97.253 57.186,97.092 56.594 C 96.751 55.333,96.803 53.009,97.207 51.458 C 97.422 50.630,97.455 50.104,97.253 50.708 M121.193 51.144 C 121.087 51.499,121.009 52.042,121.021 52.353 C 121.042 52.916,121.042 52.916,121.158 52.250 C 121.222 51.883,121.331 51.340,121.401 51.042 C 121.576 50.289,121.427 50.362,121.193 51.144 M143.444 50.611 C 143.235 50.821,143.318 56.418,143.533 56.633 C 143.760 56.860,164.752 56.934,164.891 56.708 C 164.933 56.640,160.157 56.583,154.276 56.583 L 143.583 56.583 143.583 53.542 C 143.583 51.869,143.577 50.500,143.569 50.500 C 143.562 50.500,143.506 50.550,143.444 50.611 M255.241 50.714 C 255.195 50.832,255.179 52.201,255.205 53.756 L 255.251 56.583 255.334 53.541 C 255.415 50.556,255.406 50.283,255.241 50.714 M88.272 51.375 C 88.135 51.885,88.162 57.012,88.303 57.369 C 88.366 57.526,88.417 56.158,88.417 54.328 C 88.417 52.497,88.407 51.000,88.394 51.000 C 88.382 51.000,88.327 51.169,88.272 51.375 M249.686 52.016 C 249.584 52.310,249.507 52.707,249.515 52.900 C 249.523 53.092,249.632 52.878,249.757 52.422 C 250.014 51.483,249.967 51.210,249.686 52.016 M176.383 52.458 C 176.189 53.373,176.262 56.241,176.488 56.605 C 176.667 56.891,176.674 56.887,176.582 56.549 C 176.445 56.044,176.450 52.839,176.590 52.284 C 176.652 52.036,176.661 51.833,176.609 51.833 C 176.557 51.833,176.455 52.115,176.383 52.458 M240.733 54.333 C 240.733 55.663,240.759 56.206,240.790 55.542 C 240.822 54.877,240.822 53.790,240.790 53.125 C 240.759 52.460,240.733 53.004,240.733 54.333 M128.856 54.500 C 128.854 55.554,128.911 56.717,128.983 57.083 C 129.060 57.473,129.085 56.747,129.043 55.333 C 128.956 52.354,128.861 51.931,128.856 54.500 M277.453 53.576 C 277.381 54.123,277.288 54.760,277.247 54.993 C 277.206 55.226,277.285 55.079,277.424 54.667 C 277.563 54.254,277.655 53.617,277.630 53.250 C 277.587 52.641,277.572 52.670,277.453 53.576 M112.411 62.500 C 112.411 67.862,112.432 70.056,112.458 67.375 C 112.484 64.694,112.484 60.306,112.458 57.625 C 112.432 54.944,112.411 57.137,112.411 62.500 M137.557 54.750 C 137.558 55.483,137.587 55.763,137.622 55.371 C 137.657 54.979,137.657 54.379,137.621 54.037 C 137.585 53.696,137.557 54.017,137.557 54.750 M249.388 54.750 C 249.389 55.392,249.419 55.634,249.455 55.288 C 249.491 54.942,249.490 54.417,249.454 54.121 C 249.417 53.825,249.387 54.108,249.388 54.750 M280.885 55.250 C 280.886 55.800,280.917 56.005,280.954 55.705 C 280.991 55.406,280.990 54.956,280.952 54.705 C 280.914 54.455,280.884 54.700,280.885 55.250 M167.917 56.750 C 167.967 58.169,168.284 59.673,168.598 59.987 C 168.723 60.112,168.460 58.931,168.289 58.597 C 168.199 58.422,168.065 57.559,167.991 56.681 L 167.858 55.083 167.917 56.750 M249.511 56.606 C 249.505 56.802,249.610 57.214,249.743 57.523 C 250.055 58.241,250.063 57.967,249.759 57.000 C 249.626 56.578,249.517 56.406,249.511 56.606 M276.565 56.502 C 276.464 56.603,272.447 56.681,265.910 56.708 L 255.417 56.753 265.917 56.790 C 275.473 56.825,277.158 56.769,276.817 56.429 C 276.768 56.379,276.655 56.412,276.565 56.502 M137.675 56.604 C 137.649 57.169,138.347 58.740,139.188 60.009 C 140.229 61.579,143.220 64.002,143.621 63.601 C 143.670 63.552,143.494 63.417,143.230 63.300 C 142.966 63.183,142.651 62.993,142.530 62.877 C 142.409 62.761,142.213 62.667,142.095 62.667 C 141.827 62.667,139.333 60.271,139.333 60.014 C 139.333 59.911,139.137 59.530,138.897 59.167 C 138.657 58.804,138.286 58.037,138.072 57.462 C 137.859 56.887,137.680 56.501,137.675 56.604 M285.250 56.667 L 281.083 56.759 285.198 56.796 C 287.803 56.820,289.351 56.772,289.417 56.667 C 289.473 56.575,289.496 56.517,289.468 56.537 C 289.440 56.558,287.542 56.616,285.250 56.667 M210.551 56.791 C 211.725 56.820,213.600 56.820,214.718 56.791 C 215.836 56.762,214.875 56.739,212.583 56.739 C 210.292 56.739,209.377 56.763,210.551 56.791 M176.678 57.333 C 176.678 57.471,176.791 57.771,176.930 58.000 L 177.181 58.417 177.070 58.000 C 176.910 57.395,176.677 56.999,176.678 57.333 M129.182 58.058 C 129.161 58.491,129.669 60.216,129.876 60.417 C 129.995 60.531,130.009 60.478,129.921 60.250 C 129.851 60.067,129.659 59.429,129.495 58.833 C 129.331 58.237,129.190 57.888,129.182 58.058 M97.535 58.554 C 97.638 58.891,97.790 59.167,97.873 59.167 C 98.069 59.167,97.861 58.483,97.572 58.179 C 97.382 57.979,97.376 58.038,97.535 58.554 M241.019 58.167 C 241.027 58.304,241.093 58.604,241.167 58.833 L 241.300 59.250 241.314 58.833 C 241.322 58.604,241.256 58.304,241.167 58.167 C 241.023 57.944,241.007 57.944,241.019 58.167 M250.002 58.292 C 250.004 58.513,250.986 60.138,251.195 60.268 C 251.306 60.336,251.228 60.120,251.022 59.786 C 250.817 59.453,250.534 58.952,250.395 58.674 C 250.150 58.182,249.998 58.035,250.002 58.292 M177.167 58.568 C 177.167 58.759,178.011 60.154,178.196 60.268 C 178.342 60.358,178.184 60.033,177.566 58.975 C 177.336 58.580,177.167 58.407,177.167 58.568 M88.695 58.917 C 88.692 59.100,88.755 59.400,88.833 59.583 C 89.016 60.008,89.016 59.570,88.833 59.000 C 88.726 58.665,88.699 58.649,88.695 58.917 M204.212 59.244 C 204.101 59.605,204.044 59.933,204.084 59.973 C 204.199 60.088,204.519 59.139,204.463 58.849 C 204.436 58.706,204.323 58.884,204.212 59.244 M98.161 59.620 C 98.752 60.843,101.271 63.101,102.550 63.556 C 103.106 63.754,102.692 63.399,101.889 62.989 C 101.149 62.612,99.252 60.860,98.366 59.737 C 98.103 59.404,98.038 59.367,98.161 59.620 M241.340 59.396 C 241.324 59.760,242.233 62.144,242.528 62.509 C 242.767 62.807,242.813 62.827,242.698 62.583 C 242.186 61.503,241.833 60.665,241.833 60.528 C 241.833 60.320,241.348 59.208,241.340 59.396 M194.667 59.750 C 194.549 59.892,194.490 60.046,194.536 60.091 C 194.582 60.137,194.716 60.059,194.833 59.917 C 194.951 59.775,195.010 59.621,194.964 59.575 C 194.918 59.529,194.784 59.608,194.667 59.750 M89.000 60.313 C 89.000 60.485,89.112 60.718,89.248 60.832 C 89.464 61.011,89.472 60.970,89.315 60.519 C 89.109 59.929,89.000 59.857,89.000 60.313 M168.750 60.687 C 168.978 61.447,169.505 62.551,169.595 62.460 C 169.645 62.410,169.532 62.081,169.343 61.729 C 169.154 61.376,169.000 60.960,169.000 60.804 C 169.000 60.648,168.917 60.468,168.815 60.406 C 168.689 60.328,168.669 60.417,168.750 60.687 M203.477 61.417 C 203.039 62.495,203.092 62.767,203.559 61.832 C 203.800 61.348,204.081 60.331,203.972 60.336 C 203.941 60.337,203.719 60.824,203.477 61.417 M179.370 61.583 C 180.394 62.563,182.009 63.665,182.417 63.663 C 182.508 63.662,182.133 63.405,181.583 63.091 C 181.033 62.777,180.104 62.065,179.518 61.510 C 178.932 60.954,178.407 60.502,178.352 60.506 C 178.296 60.509,178.754 60.993,179.370 61.583 M252.419 61.605 C 253.499 62.662,255.238 63.817,255.443 63.612 C 255.491 63.564,255.103 63.316,254.580 63.060 C 254.057 62.804,253.094 62.114,252.439 61.527 L 251.250 60.460 252.419 61.605 M130.007 60.781 C 129.997 61.077,130.331 61.892,130.424 61.798 C 130.469 61.754,130.394 61.462,130.259 61.150 C 130.124 60.838,130.010 60.672,130.007 60.781 M192.799 61.821 C 192.368 62.255,191.580 62.852,191.049 63.147 C 190.518 63.442,190.271 63.632,190.500 63.570 C 191.333 63.342,194.395 60.972,193.799 61.016 C 193.680 61.025,193.230 61.387,192.799 61.821 M89.583 61.667 C 89.650 61.896,89.779 62.158,89.871 62.250 C 89.982 62.361,89.997 62.278,89.917 62.000 C 89.850 61.771,89.721 61.508,89.629 61.417 C 89.518 61.306,89.503 61.389,89.583 61.667 M90.007 62.625 C 90.011 62.694,90.198 63.050,90.422 63.417 C 90.646 63.783,90.904 64.252,90.994 64.458 C 91.084 64.665,91.244 64.833,91.348 64.833 C 91.463 64.833,91.419 64.652,91.236 64.375 C 91.070 64.123,90.755 63.598,90.536 63.208 C 90.157 62.533,89.991 62.351,90.007 62.625 M169.841 63.103 C 169.932 63.343,170.155 63.728,170.337 63.959 C 170.518 64.189,170.667 64.462,170.667 64.564 C 170.667 64.666,171.084 65.200,171.593 65.750 L 172.519 66.750 171.660 65.594 C 171.188 64.959,170.577 64.040,170.302 63.553 C 169.758 62.590,169.579 62.415,169.841 63.103 M202.690 63.106 C 202.490 63.553,202.494 63.566,202.757 63.308 C 202.912 63.157,203.008 62.942,202.971 62.831 C 202.934 62.720,202.808 62.844,202.690 63.106 M131.010 63.096 C 131.000 63.268,132.644 65.815,133.098 66.333 C 134.493 67.922,136.379 69.506,137.750 70.239 C 138.208 70.484,138.441 70.587,138.268 70.467 C 134.698 68.007,133.560 66.838,131.218 63.223 C 131.109 63.055,131.015 62.997,131.010 63.096 M242.833 63.209 C 242.833 63.356,242.927 63.576,243.042 63.698 C 243.156 63.819,243.550 64.368,243.916 64.918 C 245.332 67.040,247.387 68.960,249.853 70.465 C 251.122 71.240,250.652 70.786,249.155 69.792 C 247.123 68.441,245.157 66.479,243.865 64.512 C 243.298 63.648,242.833 63.062,242.833 63.209 M255.741 63.681 C 255.641 63.843,255.762 63.901,256.583 64.083 C 257.164 64.212,257.121 64.151,256.376 63.789 C 256.068 63.639,255.795 63.593,255.741 63.681 M103.167 63.811 C 103.304 63.898,103.717 64.015,104.083 64.071 C 104.538 64.141,104.644 64.126,104.417 64.025 C 103.905 63.797,102.865 63.619,103.167 63.811 M144.000 63.811 C 144.137 63.898,144.550 64.015,144.917 64.071 C 145.372 64.141,145.478 64.126,145.250 64.025 C 144.738 63.797,143.698 63.619,144.000 63.811 M182.833 63.816 C 182.971 63.892,183.308 64.000,183.583 64.054 L 184.083 64.153 183.583 63.917 C 183.021 63.652,182.385 63.566,182.833 63.816 M189.000 63.929 C 188.586 64.178,188.587 64.179,189.167 64.072 C 189.833 63.950,190.245 63.663,189.742 63.673 C 189.563 63.676,189.229 63.791,189.000 63.929 M201.809 64.542 C 201.502 65.023,200.998 65.698,200.689 66.042 C 200.380 66.385,200.193 66.663,200.272 66.659 C 200.544 66.644,202.708 63.667,202.448 63.667 C 202.404 63.667,202.117 64.060,201.809 64.542 M105.092 64.349 C 105.270 64.419,106.184 64.482,107.122 64.488 L 108.828 64.500 108.875 68.625 L 108.923 72.750 108.961 68.620 C 108.991 65.435,108.952 64.474,108.792 64.423 C 108.392 64.295,104.769 64.223,105.092 64.349 M145.963 64.363 C 146.121 64.426,148.987 64.467,152.333 64.454 C 155.679 64.442,157.817 64.411,157.083 64.384 C 154.018 64.275,145.699 64.259,145.963 64.363 M184.750 64.341 C 185.154 64.505,187.472 64.522,187.864 64.363 C 188.018 64.301,187.306 64.240,186.281 64.228 C 185.186 64.215,184.554 64.262,184.750 64.341 M257.611 64.333 C 257.657 64.379,260.534 64.454,264.006 64.500 C 267.477 64.546,270.265 64.533,270.200 64.472 C 270.067 64.344,257.483 64.206,257.611 64.333 M158.572 68.667 C 158.572 71.004,158.596 71.960,158.625 70.792 C 158.653 69.623,158.653 67.710,158.625 66.542 C 158.596 65.373,158.572 66.329,158.572 68.667 M270.405 68.667 C 270.405 70.821,270.429 71.702,270.458 70.625 C 270.487 69.548,270.487 67.785,270.458 66.708 C 270.429 65.631,270.405 66.512,270.405 68.667 M91.738 65.397 C 92.815 67.129,97.342 71.047,97.771 70.618 C 97.813 70.575,97.489 70.331,97.049 70.076 C 95.774 69.334,93.908 67.736,92.807 66.444 C 91.566 64.985,91.350 64.774,91.738 65.397 M220.385 65.917 C 220.386 66.467,220.417 66.672,220.454 66.372 C 220.491 66.072,220.490 65.622,220.452 65.372 C 220.414 65.122,220.384 65.367,220.385 65.917 M229.516 66.333 C 229.510 66.654,229.613 67.217,229.745 67.583 C 230.045 68.415,230.048 68.060,229.753 66.750 C 229.567 65.925,229.526 65.852,229.516 66.333 M172.688 67.124 C 172.814 67.284,173.067 67.538,173.250 67.689 C 173.433 67.840,173.857 68.215,174.192 68.523 C 175.198 69.449,177.206 70.833,177.542 70.833 C 177.628 70.833,177.902 70.978,178.151 71.156 C 178.400 71.333,178.824 71.523,179.093 71.577 C 179.393 71.638,179.162 71.464,178.500 71.130 C 176.444 70.092,174.877 68.992,173.475 67.602 C 172.710 66.843,172.244 66.560,172.688 67.124 M199.333 67.544 C 198.179 68.632,197.129 69.440,195.806 70.255 C 194.496 71.063,194.369 71.282,195.637 70.549 C 197.171 69.661,199.235 68.028,199.979 67.114 C 200.365 66.640,200.119 66.804,199.333 67.544 M220.587 68.493 C 220.632 69.085,220.749 69.647,220.847 69.743 C 221.033 69.923,220.952 69.213,220.650 68.000 C 220.539 67.554,220.524 67.670,220.587 68.493 M230.001 68.382 C 230.000 68.561,230.655 69.833,230.748 69.833 C 230.789 69.833,230.774 69.702,230.714 69.542 C 230.560 69.132,230.001 68.223,230.001 68.382 M221.086 70.525 C 221.175 71.133,221.612 72.167,221.780 72.167 C 221.829 72.167,221.813 72.035,221.744 71.875 C 221.675 71.715,221.478 71.208,221.307 70.750 C 221.028 70.000,221.005 69.977,221.086 70.525 M230.961 70.250 C 231.560 71.407,235.346 74.209,235.756 73.799 C 235.799 73.756,235.290 73.455,234.623 73.130 C 233.741 72.699,233.056 72.183,232.100 71.228 C 231.379 70.507,230.866 70.067,230.961 70.250 M98.000 70.770 C 98.000 71.056,101.584 72.407,102.750 72.560 L 103.417 72.648 102.833 72.476 C 101.088 71.964,99.975 71.576,99.042 71.156 C 98.469 70.898,98.000 70.725,98.000 70.770 M138.667 70.748 C 138.667 70.862,139.687 71.368,139.763 71.292 C 139.800 71.256,139.568 71.102,139.248 70.949 C 138.928 70.797,138.667 70.706,138.667 70.748 M251.120 71.149 C 251.390 71.392,253.670 72.219,253.776 72.113 C 253.801 72.088,253.147 71.801,252.322 71.475 C 251.456 71.132,250.948 70.995,251.120 71.149 M140.429 71.629 C 140.983 71.986,142.351 72.411,143.417 72.557 L 144.083 72.648 143.500 72.477 C 142.901 72.302,140.844 71.632,140.250 71.418 C 140.067 71.352,140.147 71.447,140.429 71.629 M193.408 71.472 C 193.321 71.548,192.924 71.703,192.525 71.817 C 192.127 71.930,191.831 72.053,191.868 72.090 C 191.976 72.198,193.218 71.816,193.578 71.564 C 193.759 71.437,193.831 71.333,193.737 71.333 C 193.643 71.333,193.495 71.396,193.408 71.472 M179.833 71.805 C 179.971 71.890,180.271 72.010,180.500 72.071 C 180.790 72.149,180.840 72.135,180.667 72.028 C 180.529 71.943,180.229 71.824,180.000 71.762 C 179.710 71.685,179.660 71.698,179.833 71.805 M181.250 72.320 C 181.433 72.393,181.883 72.496,182.250 72.550 L 182.917 72.647 182.250 72.420 C 181.883 72.295,181.433 72.191,181.250 72.190 L 180.917 72.188 181.250 72.320 M190.527 72.364 C 190.129 72.453,189.837 72.559,189.877 72.600 C 189.963 72.686,191.667 72.340,191.667 72.236 C 191.667 72.141,191.379 72.173,190.527 72.364 M254.167 72.311 C 254.304 72.394,254.754 72.509,255.167 72.565 C 255.648 72.631,255.797 72.616,255.583 72.524 C 255.089 72.312,253.862 72.127,254.167 72.311 M221.928 72.667 C 221.988 72.896,222.104 73.155,222.185 73.242 C 222.423 73.496,222.350 73.131,222.070 72.667 L 221.819 72.250 221.928 72.667 M104.083 72.845 C 104.576 72.959,109.074 73.028,108.750 72.916 C 108.658 72.885,107.458 72.830,106.083 72.794 C 104.708 72.758,103.808 72.781,104.083 72.845 M112.609 72.875 C 112.652 72.944,114.515 73.000,116.750 73.000 C 118.985 73.000,120.848 72.944,120.891 72.875 C 120.933 72.806,119.070 72.750,116.750 72.750 C 114.430 72.750,112.567 72.806,112.609 72.875 M144.590 72.855 C 144.861 72.913,148.083 72.956,151.750 72.950 C 155.417 72.945,158.079 72.917,157.667 72.890 C 156.111 72.786,144.119 72.755,144.590 72.855 M183.593 72.855 C 184.241 72.994,188.643 72.997,189.135 72.858 C 189.346 72.799,188.076 72.750,186.311 72.750 C 184.546 72.750,183.323 72.797,183.593 72.855 M256.530 72.858 C 257.075 73.011,270.130 73.027,270.224 72.875 C 270.266 72.806,267.116 72.750,263.223 72.750 C 259.330 72.750,256.318 72.799,256.530 72.858 M222.450 73.792 C 222.587 74.166,223.810 76.001,224.661 77.109 C 225.310 77.953,227.216 79.757,228.038 80.305 C 228.268 80.458,228.767 80.801,229.148 81.066 C 229.529 81.332,229.874 81.515,229.915 81.473 C 229.957 81.432,229.487 81.072,228.870 80.674 C 227.188 79.586,224.248 76.540,223.273 74.875 C 222.489 73.535,222.234 73.200,222.450 73.792 M237.167 74.111 C 237.396 74.147,237.752 74.213,237.958 74.258 L 238.333 74.340 238.333 79.003 L 238.333 83.667 237.625 83.695 L 236.917 83.723 237.564 83.789 C 238.531 83.889,238.524 83.924,238.528 79.016 C 238.533 73.952,238.541 73.986,237.438 74.023 C 237.024 74.036,236.916 74.072,237.167 74.111 M230.167 81.580 C 230.167 81.694,231.338 82.270,231.833 82.399 C 232.063 82.459,231.800 82.282,231.250 82.006 C 230.165 81.462,230.167 81.462,230.167 81.580 M232.425 82.655 C 232.512 82.740,232.808 82.856,233.083 82.913 C 233.582 83.016,233.581 83.016,233.023 82.758 C 232.383 82.464,232.197 82.431,232.425 82.655 M234.250 83.268 C 234.617 83.403,235.367 83.544,235.917 83.583 L 236.917 83.654 235.917 83.495 C 235.367 83.407,234.699 83.260,234.433 83.168 C 234.168 83.076,233.868 83.005,233.767 83.012 C 233.666 83.018,233.883 83.134,234.250 83.268 " stroke="none" fill="#c4f2f8" fill-rule="evenodd"></path></g></svg>