<?xml version="1.0" encoding="UTF-8"?>
<svg xmlns="http://www.w3.org/2000/svg" xmlns:xlink="http://www.w3.org/1999/xlink" width="100px" height="100px" viewBox="0 0 100 16" version="1.1">
<g id="surface1">
<path style=" stroke:none;fill-rule:nonzero;fill:rgb(100%,94.901961%,17.647059%);fill-opacity:1;" d="M 0.0585938 0 L 99.941406 0 L 99.941406 16 L 0.0585938 16 Z M 0.0585938 0 "/>
<path style=" stroke:none;fill-rule:nonzero;fill:rgb(13.72549%,37.647059%,64.705882%);fill-opacity:1;" d="M 4.710938 12.332031 L 6.03125 11.5 L 7.355469 12.332031 L 4.710938 14 Z M 17.402344 3.667969 L 16.078125 4.5 L 14.757812 3.667969 L 17.402344 2 Z M 17.402344 10 L 11.054688 14 L 4.710938 10 L 12.246094 5.25 L 13.570312 6.082031 L 7.488281 9.917969 L 11.1875 12.25 L 12.90625 11.167969 L 11.585938 10.332031 L 14.757812 8.332031 Z M 4.710938 6 L 11.058594 2 L 17.402344 6 L 9.867188 10.75 L 8.542969 9.917969 L 14.625 6.082031 L 10.925781 3.75 L 9.207031 4.832031 L 10.527344 5.667969 L 7.355469 7.667969 Z M 19.9375 9.390625 L 19.9375 11.996094 L 23.398438 11.996094 C 24.230469 11.996094 26.289062 11.910156 26.289062 9.882812 C 26.289062 9.710938 26.28125 9.542969 26.257812 9.386719 L 24.109375 9.390625 C 24.121094 9.46875 24.125 9.550781 24.125 9.636719 C 24.125 10.757812 23.148438 10.769531 22.710938 10.769531 L 22.070312 10.769531 L 22.070312 9.390625 Z M 27.183594 9.390625 L 26.335938 11.996094 L 28.078125 11.996094 L 28.511719 10.546875 L 30.378906 10.546875 L 30.804688 11.996094 L 32.648438 11.996094 L 31.820312 9.390625 L 30.0625 9.390625 L 30.101562 9.539062 L 28.765625 9.539062 L 28.800781 9.390625 Z M 33.058594 9.390625 L 33.058594 11.996094 L 34.550781 11.996094 L 34.550781 9.390625 Z M 35.328125 9.390625 L 36.476562 11.996094 L 38.554688 11.996094 L 38.554688 9.390625 L 37.058594 9.390625 L 37.058594 9.683594 L 36.925781 9.390625 Z M 39.265625 9.390625 C 39.285156 11.023438 39.503906 12.191406 41.894531 12.191406 C 43.421875 12.191406 44.316406 11.617188 44.316406 9.832031 L 42.578125 9.832031 C 42.554688 10.359375 42.546875 11.191406 41.894531 11.191406 C 41.242188 11.191406 41.082031 10.859375 41.050781 9.386719 Z M 44.839844 9.390625 C 44.875 10.886719 45.171875 12.191406 47.527344 12.191406 C 49.886719 12.191406 50.179688 10.886719 50.21875 9.390625 L 48.410156 9.390625 C 48.378906 10.640625 48.207031 11.191406 47.527344 11.191406 C 46.847656 11.191406 46.675781 10.640625 46.644531 9.386719 Z M 52.136719 9.390625 L 52.136719 11.996094 L 54.769531 11.996094 C 56.988281 11.996094 57.304688 10.5 57.339844 9.390625 L 55.554688 9.390625 C 55.503906 10.542969 55.277344 11 54.558594 11 L 53.890625 11 L 53.890625 9.390625 Z M 58.003906 9.390625 C 58.039062 10.882812 58.328125 12.191406 60.695312 12.191406 C 63.058594 12.191406 63.347656 10.882812 63.382812 9.386719 L 61.578125 9.390625 C 61.542969 10.640625 61.375 11.195312 60.691406 11.195312 C 60.007812 11.195312 59.839844 10.640625 59.808594 9.390625 Z M 65.210938 9.390625 L 65.210938 11.996094 L 68.671875 11.996094 C 69.5 11.996094 71.5625 11.910156 71.5625 9.882812 C 71.5625 9.707031 71.550781 9.542969 71.53125 9.386719 L 69.414062 9.386719 C 69.421875 9.46875 69.425781 9.558594 69.425781 9.648438 C 69.425781 10.765625 68.628906 10.78125 68.273438 10.78125 L 67.34375 10.78125 L 67.34375 9.386719 Z M 72.144531 9.390625 L 72.144531 11.996094 L 73.949219 11.996094 L 73.949219 9.390625 Z M 74.6875 9.390625 L 75.886719 11.996094 L 78.773438 11.996094 L 79.207031 10.546875 L 81.074219 10.546875 L 81.5 11.996094 L 85.691406 11.996094 C 86.851562 11.996094 88.027344 11.851562 88.027344 10.15625 C 88.03125 9.890625 87.964844 9.625 87.832031 9.390625 L 85.21875 9.390625 C 85.757812 9.628906 86.171875 9.875 86.171875 10.261719 C 86.171875 10.703125 85.921875 11.003906 85.40625 11.003906 L 83.027344 11.003906 L 82.515625 9.390625 L 80.757812 9.390625 L 80.796875 9.542969 L 79.460938 9.542969 L 79.496094 9.390625 L 77.863281 9.390625 L 77.203125 11.40625 L 76.238281 9.390625 Z M 88.679688 9.390625 L 88.679688 11.996094 L 90.441406 11.996094 L 90.441406 9.390625 Z M 91.472656 9.390625 L 91.472656 11.996094 L 95.289062 11.996094 L 95.289062 11.007812 L 93.234375 11.007812 L 93.234375 9.386719 Z M 91.472656 9.390625 "/>
<path style=" stroke:none;fill-rule:nonzero;fill:rgb(13.72549%,37.647059%,64.705882%);fill-opacity:1;" d="M 22.070312 9.390625 L 22.070312 8.507812 L 22.496094 8.496094 L 22.765625 8.496094 C 23.675781 8.496094 24.035156 8.828125 24.113281 9.390625 L 26.261719 9.390625 C 26.152344 8.558594 25.710938 7.996094 24.539062 7.855469 C 25.601562 7.65625 26.136719 6.992188 26.136719 6.074219 C 26.136719 4.367188 24.902344 4 23.414062 4 L 19.941406 4 L 19.941406 9.390625 Z M 28.800781 9.390625 L 29.402344 6.863281 L 30.0625 9.390625 L 31.820312 9.390625 L 30.570312 5.453125 L 28.457031 5.453125 L 27.183594 9.390625 Z M 34.550781 9.390625 L 34.550781 7.632812 L 35.328125 9.390625 L 36.925781 9.390625 L 35.183594 5.453125 L 33.058594 5.453125 L 33.058594 9.390625 Z M 38.554688 9.390625 L 38.554688 5.453125 L 37.058594 5.453125 L 37.058594 9.390625 Z M 41.050781 9.390625 C 41.050781 9.171875 41.046875 8.957031 41.046875 8.738281 C 41.046875 6.644531 41.21875 6.289062 41.863281 6.289062 C 42.328125 6.289062 42.535156 6.621094 42.535156 7.507812 L 44.265625 7.507812 C 44.328125 6.078125 43.488281 5.289062 41.820312 5.289062 C 39.335938 5.289062 39.265625 6.78125 39.265625 8.738281 C 39.265625 8.960938 39.265625 9.179688 39.265625 9.386719 Z M 46.644531 9.390625 C 46.640625 9.191406 46.636719 8.976562 46.636719 8.738281 C 46.636719 7.027344 46.738281 6.289062 47.527344 6.289062 C 48.316406 6.289062 48.417969 7.027344 48.417969 8.738281 C 48.417969 8.976562 48.417969 9.191406 48.410156 9.386719 L 50.21875 9.390625 C 50.222656 9.175781 50.222656 8.957031 50.222656 8.738281 C 50.222656 6.972656 50.222656 5.289062 47.527344 5.289062 C 44.835938 5.289062 44.835938 6.972656 44.835938 8.738281 C 44.835938 8.957031 44.835938 9.175781 44.839844 9.390625 Z M 53.890625 9.390625 L 53.890625 6.453125 L 54.605469 6.453125 C 55.570312 6.453125 55.570312 7.515625 55.570312 8.726562 C 55.570312 8.96875 55.5625 9.1875 55.558594 9.386719 L 57.339844 9.386719 C 57.351562 9.121094 57.34375 8.875 57.34375 8.675781 C 57.34375 6.628906 56.949219 5.429688 54.832031 5.429688 L 52.136719 5.429688 L 52.136719 9.386719 L 53.890625 9.386719 Z M 59.8125 9.390625 C 59.804688 9.175781 59.804688 8.964844 59.804688 8.753906 C 59.804688 7.050781 59.90625 6.3125 60.695312 6.3125 C 61.484375 6.3125 61.582031 7.050781 61.582031 8.753906 C 61.582031 8.984375 61.582031 9.195312 61.578125 9.390625 L 63.382812 9.390625 C 63.390625 9.179688 63.390625 8.96875 63.390625 8.753906 C 63.390625 6.996094 63.390625 5.320312 60.695312 5.320312 C 57.996094 5.320312 57.996094 6.996094 57.996094 8.753906 C 57.996094 8.96875 57.996094 9.179688 58.003906 9.386719 Z M 67.34375 9.390625 L 67.34375 8.523438 L 67.882812 8.507812 L 68.320312 8.507812 C 69.054688 8.507812 69.347656 8.835938 69.414062 9.390625 L 71.53125 9.390625 C 71.421875 8.5625 70.980469 7.996094 69.8125 7.855469 C 70.875 7.65625 71.40625 6.992188 71.40625 6.074219 C 71.40625 4.367188 70.175781 4.003906 68.683594 4.003906 L 65.210938 4.003906 L 65.210938 9.390625 Z M 73.949219 9.390625 L 73.949219 6.457031 L 74.546875 6.457031 C 75.058594 6.457031 75.5 6.808594 75.5 7.453125 C 75.5 7.996094 75.210938 8.445312 74.746094 8.417969 L 74.242188 8.425781 L 74.6875 9.390625 L 76.238281 9.390625 L 75.980469 8.847656 C 76.878906 8.691406 77.234375 8.152344 77.238281 7.164062 C 77.242188 6.050781 76.539062 5.453125 75.445312 5.453125 L 72.144531 5.453125 L 72.144531 9.390625 Z M 79.496094 9.390625 L 80.097656 6.867188 L 80.757812 9.390625 L 82.515625 9.390625 L 81.265625 5.449219 L 79.15625 5.449219 L 77.863281 9.390625 Z M 87.832031 9.390625 C 87.171875 8.222656 85.027344 8.203125 85.027344 7.152344 C 85.027344 6.699219 85.316406 6.453125 85.8125 6.453125 L 87.417969 6.453125 L 87.417969 5.445312 L 85.160156 5.445312 C 83.304688 5.445312 82.847656 6.238281 82.847656 7.261719 C 82.847656 8.523438 84.238281 8.949219 85.21875 9.386719 Z M 90.441406 9.390625 L 90.441406 5.453125 L 88.675781 5.453125 L 88.675781 9.390625 Z M 93.234375 9.390625 L 93.234375 5.453125 L 91.472656 5.453125 L 91.472656 9.390625 Z M 22.070312 7.273438 L 22.070312 5.230469 L 22.835938 5.230469 C 23.527344 5.230469 24.019531 5.660156 24.019531 6.25 C 24.019531 7.023438 23.394531 7.269531 22.945312 7.269531 L 22.226562 7.269531 Z M 67.34375 7.285156 L 67.34375 5.242188 L 68.375 5.242188 C 68.9375 5.242188 69.339844 5.675781 69.339844 6.261719 C 69.339844 7.035156 68.828125 7.28125 68.464844 7.28125 L 67.878906 7.28125 Z M 67.34375 7.285156 "/>
</g>
</svg>
