<?xml version="1.0" encoding="UTF-8"?>
<svg xmlns="http://www.w3.org/2000/svg" xmlns:xlink="http://www.w3.org/1999/xlink" width="100px" height="100px" viewBox="0 0 100 100" version="1.1">
<g id="surface1">
<rect x="0" y="0" width="100" height="100" style="fill:rgb(100%,100%,100%);fill-opacity:1;stroke:none;"/>
<path style=" stroke:none;fill-rule:evenodd;fill:rgb(35.686275%,36.078431%,36.862745%);fill-opacity:1;" d="M 33.386719 49.902344 L 37.980469 49.902344 C 39.835938 49.902344 41.222656 50.84375 41.222656 52.84375 C 41.222656 54.296875 40.582031 55.121094 39.46875 55.550781 L 39.46875 55.578125 C 40.789062 55.894531 41.484375 56.714844 41.484375 58.128906 C 41.484375 60.902344 39.378906 61.480469 37.597656 61.480469 L 33.386719 61.480469 Z M 36.054688 59.292969 L 36.839844 59.292969 C 37.808594 59.292969 38.816406 59.125 38.816406 57.945312 C 38.816406 56.679688 37.78125 56.574219 36.867188 56.574219 L 36.054688 56.574219 Z M 36.054688 54.480469 L 36.789062 54.480469 C 37.664062 54.480469 38.566406 54.230469 38.566406 53.25 C 38.566406 52.191406 37.703125 52.097656 36.828125 52.097656 L 36.054688 52.097656 Z M 47.578125 55.238281 C 47.292969 55.132812 47.003906 55.132812 46.703125 55.132812 C 45.511719 55.132812 44.832031 56.140625 44.832031 57.828125 L 44.832031 61.480469 L 42.269531 61.480469 L 42.269531 52.84375 L 44.609375 52.84375 L 44.609375 54.441406 L 44.636719 54.441406 C 45.082031 53.34375 45.722656 52.636719 46.835938 52.636719 C 47.136719 52.636719 47.449219 52.6875 47.710938 52.742188 Z M 52.640625 61.480469 L 52.640625 60.339844 C 52.171875 61.214844 51.335938 61.6875 50.367188 61.6875 C 48.902344 61.6875 47.59375 60.839844 47.59375 58.953125 C 47.59375 56.324219 50.050781 56.011719 51.425781 56.011719 C 51.832031 56.011719 52.289062 56.0625 52.617188 56.128906 C 52.601562 54.949219 51.84375 54.636719 50.914062 54.636719 C 50.09375 54.636719 49.28125 54.820312 48.5625 55.277344 L 48.519531 53.25 C 49.4375 52.820312 50.378906 52.636719 51.476562 52.636719 C 53.375 52.636719 55.023438 53.589844 55.023438 56.234375 L 55.023438 59.4375 C 55.023438 60.117188 55.050781 60.796875 55.167969 61.480469 Z M 51.035156 59.632812 C 51.738281 59.632812 52.300781 59.332031 52.640625 58.730469 L 52.640625 57.59375 C 52.273438 57.5625 51.902344 57.542969 51.53125 57.542969 C 50.667969 57.542969 49.972656 57.855469 49.972656 58.691406 C 49.972656 59.28125 50.429688 59.632812 51.035156 59.632812 Z M 64.167969 61.480469 L 61.785156 61.480469 L 61.785156 60.183594 L 61.761719 60.183594 C 61.261719 61.140625 60.296875 61.6875 59.210938 61.6875 C 56.984375 61.6875 55.808594 59.554688 55.808594 56.992188 C 55.808594 54.886719 56.933594 52.636719 58.988281 52.636719 C 60.019531 52.636719 60.882812 52.960938 61.550781 53.957031 L 61.578125 53.957031 L 61.578125 49.863281 L 64.167969 49.863281 Z M 60.019531 59.386719 C 60.871094 59.386719 61.589844 58.445312 61.589844 57.175781 C 61.589844 55.878906 60.960938 54.9375 60.019531 54.9375 C 59.011719 54.9375 58.464844 55.933594 58.464844 57.070312 C 58.464844 58.445312 59.050781 59.386719 60.019531 59.386719 Z M 67.671875 58.023438 C 67.816406 59.230469 68.601562 59.6875 69.855469 59.6875 C 70.5625 59.6875 71.359375 59.503906 72.132812 59.019531 L 72.132812 61.140625 C 71.296875 61.519531 70.355469 61.6875 69.398438 61.6875 C 66.941406 61.6875 65.070312 60 65.070312 57.148438 C 65.070312 54.296875 66.742188 52.636719 69.058594 52.636719 C 71.820312 52.636719 72.8125 54.914062 72.8125 57.476562 L 72.8125 58.027344 L 67.671875 58.027344 Z M 70.5 56.351562 C 70.5 55.34375 70.105469 54.53125 69.074219 54.53125 C 68.144531 54.53125 67.699219 55.34375 67.648438 56.351562 Z M 73.652344 59.085938 C 74.253906 59.386719 75.140625 59.6875 76.070312 59.6875 C 76.59375 59.6875 77.117188 59.59375 77.117188 58.992188 C 77.117188 57.527344 73.453125 58.5625 73.453125 55.449219 C 73.453125 53.460938 75.140625 52.636719 76.632812 52.636719 C 77.511719 52.636719 78.414062 52.753906 79.238281 53.144531 L 79.039062 55.210938 C 78.503906 54.832031 77.679688 54.636719 77.039062 54.636719 C 76.488281 54.636719 75.863281 54.753906 75.863281 55.238281 C 75.863281 56.574219 79.679688 55.511719 79.679688 58.796875 C 79.679688 61.097656 77.902344 61.6875 76.214844 61.6875 C 75.050781 61.6875 74.265625 61.542969 73.507812 61.269531 Z M 86.417969 55.316406 C 85.949219 54.992188 85.476562 54.832031 84.863281 54.832031 C 83.738281 54.832031 82.886719 55.734375 82.886719 57.214844 C 82.886719 58.585938 83.878906 59.492188 85.003906 59.492188 C 85.582031 59.492188 86.167969 59.347656 86.601562 59.070312 L 86.652344 61.296875 C 85.984375 61.550781 85.277344 61.683594 84.5625 61.6875 C 82.101562 61.6875 80.230469 60.027344 80.230469 57.160156 C 80.230469 54.296875 82.101562 52.636719 84.5625 52.636719 C 85.332031 52.636719 86.011719 52.792969 86.601562 53.121094 Z M 86.929688 57.160156 C 86.929688 54.296875 88.796875 52.636719 91.257812 52.636719 C 93.71875 52.636719 95.589844 54.296875 95.589844 57.160156 C 95.589844 60.027344 93.71875 61.6875 91.257812 61.6875 C 88.796875 61.6875 86.929688 60.027344 86.929688 57.160156 Z M 92.933594 57.160156 C 92.933594 55.878906 92.449219 54.730469 91.257812 54.730469 C 90.082031 54.730469 89.597656 55.878906 89.597656 57.160156 C 89.597656 58.445312 90.082031 59.59375 91.257812 59.59375 C 92.449219 59.59375 92.933594 58.445312 92.933594 57.160156 Z M 92.933594 57.160156 "/>
<path style=" stroke:none;fill-rule:evenodd;fill:rgb(100%,100%,100%);fill-opacity:1;" d="M 4.410156 61.480469 L 4.410156 38.3125 L 27.59375 38.3125 L 27.59375 61.480469 Z M 4.410156 61.480469 "/>
<path style=" stroke:none;fill-rule:evenodd;fill:rgb(76.078431%,23.529412%,25.098039%);fill-opacity:1;" d="M 17.871094 52.125 L 15.949219 52.125 L 15.949219 61.480469 L 14.734375 61.480469 L 14.734375 55.210938 L 13.882812 55.210938 L 13.882812 61.480469 L 4.410156 61.480469 L 4.410156 38.3125 L 27.59375 38.3125 L 27.59375 61.480469 L 17.871094 61.480469 Z M 14.316406 44.460938 C 13.136719 44.460938 12.011719 44.550781 10.9375 44.722656 C 12.390625 42.917969 14.589844 41.765625 17.046875 41.765625 C 19.035156 41.765625 20.855469 42.523438 22.242188 43.765625 C 20.789062 42.027344 18.628906 40.914062 16.222656 40.914062 C 13.265625 40.914062 10.679688 42.589844 9.304688 45.0625 C 7.878906 45.429688 6.621094 45.9375 5.589844 46.566406 C 6.621094 46.109375 7.800781 45.742188 9.09375 45.480469 C 8.558594 46.578125 8.269531 47.820312 8.269531 49.128906 C 8.269531 51.601562 9.328125 53.824219 11.03125 55.332031 C 9.8125 53.890625 9.09375 52.019531 9.09375 49.980469 C 9.09375 48.214844 9.628906 46.59375 10.535156 45.257812 C 11.375 45.164062 12.222656 45.113281 13.070312 45.113281 C 19.441406 45.113281 24.609375 47.847656 24.609375 51.210938 C 24.609375 52.742188 23.550781 54.128906 21.808594 55.199219 C 24.28125 54.085938 25.851562 52.414062 25.851562 50.554688 C 25.851562 47.179688 20.683594 44.460938 14.316406 44.460938 Z M 14.316406 44.460938 "/>
</g>
</svg>
