<?xml version="1.0" encoding="UTF-8"?>
<svg xmlns="http://www.w3.org/2000/svg" xmlns:xlink="http://www.w3.org/1999/xlink" width="100px" height="100px" viewBox="0 0 100 100" version="1.1">
<g id="surface1">
<rect x="0" y="0" width="100" height="100" style="fill:rgb(100%,100%,100%);fill-opacity:1;stroke:none;"/>
<path style=" stroke:none;fill-rule:evenodd;fill:rgb(20%,20.392157%,55.686275%);fill-opacity:1;" d="M 21.101562 4.410156 L 79.035156 4.445312 C 88.128906 4.445312 95.621094 11.9375 95.589844 21.066406 L 95.589844 79 C 95.589844 88.128906 88.09375 95.589844 78.96875 95.589844 L 21 95.554688 C 11.871094 95.519531 4.410156 88.0625 4.410156 78.933594 L 4.480469 21 C 4.480469 11.871094 11.9375 4.378906 21.101562 4.410156 Z M 21.101562 4.410156 "/>
<path style=" stroke:none;fill-rule:evenodd;fill:rgb(100%,94.901961%,17.647059%);fill-opacity:1;" d="M 82.75 46 L 76.140625 46 L 73.417969 51.175781 L 78.046875 51.175781 Z M 87.140625 54.410156 L 80.703125 54.410156 L 80.703125 68.308594 C 80.703125 72.566406 77.84375 73.789062 75.734375 73.789062 C 73.722656 73.789062 71.507812 73.042969 71.542969 69.328125 L 71.542969 54.410156 L 65.105469 54.410156 L 65.070312 70.246094 C 65.070312 76.378906 68.582031 79.101562 73.417969 79.101562 C 76.789062 79.136719 79.410156 77.671875 80.875 75.085938 L 80.941406 75.085938 L 80.941406 78.457031 L 87.140625 78.457031 Z M 60.0625 60.78125 C 60.0625 54.820312 53.796875 53.765625 50.324219 53.765625 C 45.316406 53.765625 40.105469 54.820312 39.320312 62.175781 L 45.554688 62.175781 C 45.757812 60.78125 46.339844 58.839844 49.539062 58.839844 C 51.207031 58.839844 53.796875 58.976562 53.796875 61.632812 C 53.796875 62.992188 52.539062 63.402344 51.515625 63.539062 L 45.726562 64.390625 C 41.605469 64.96875 38.539062 67.386719 38.539062 72.089844 C 38.539062 77.058594 42.355469 79.105469 46 79.105469 C 50.425781 79.105469 52.503906 77.09375 53.933594 75.628906 C 54.070312 76.957031 54.171875 77.300781 54.546875 78.457031 L 60.097656 78.421875 C 60.097656 75.765625 60.066406 73.824219 60.066406 73.792969 L 60.066406 60.78125 Z M 32.613281 46 L 26.175781 46 L 26.175781 54.375 L 22.835938 54.375 L 22.835938 58.90625 L 26.140625 58.90625 L 26.140625 73.519531 C 26.140625 76.617188 27.128906 78.730469 32.714844 78.730469 L 33.566406 78.730469 C 34.589844 78.730469 35.609375 78.660156 36.597656 78.625 L 36.597656 73.824219 C 36.15625 73.859375 35.679688 73.925781 35.269531 73.925781 C 32.648438 73.925781 32.578125 73.378906 32.578125 71.949219 L 32.613281 58.90625 L 36.632812 58.90625 L 36.632812 54.375 L 32.613281 54.375 Z M 19.875 45.964844 L 12.925781 45.964844 L 12.890625 78.421875 L 19.839844 78.421875 Z M 19.875 45.964844 "/>
<path style=" stroke:none;fill-rule:evenodd;fill:rgb(20%,20.392157%,55.686275%);fill-opacity:1;" d="M 53.796875 69.839844 L 53.796875 66.742188 C 53.152344 67.25 52.058594 67.660156 49.402344 68.035156 C 46.984375 68.441406 45.011719 69.054688 45.011719 71.679688 C 45.011719 73.859375 46.78125 74.574219 48.007812 74.574219 C 50.867188 74.574219 53.796875 72.769531 53.796875 69.839844 Z M 53.796875 69.839844 "/>
</g>
</svg>
