<?xml version="1.0" encoding="UTF-8"?>
<svg xmlns="http://www.w3.org/2000/svg" xmlns:xlink="http://www.w3.org/1999/xlink" width="100px" height="100px" viewBox="0 0 100 31" version="1.1">
<g id="surface1">
<rect x="0" y="0" width="100" height="31" style="fill:rgb(99.607843%,0%,0%);fill-opacity:1;stroke:none;"/>
<path style=" stroke:none;fill-rule:nonzero;fill:rgb(100%,100%,100%);fill-opacity:1;" d="M 18.960938 4.867188 C 18.90625 5.351562 18.929688 5.867188 19.070312 6.285156 C 19.265625 6.851562 19.53125 7.257812 20.511719 8.496094 C 21.542969 9.804688 21.875 10.277344 22.121094 10.957031 C 22.320312 11.511719 22.328125 11.832031 22.238281 12.335938 C 23.144531 12.503906 24.632812 12.96875 25.625 13.550781 C 26.550781 14.101562 27.21875 14.820312 27.464844 15.511719 C 27.613281 15.921875 27.605469 16.5625 27.453125 16.957031 C 27.304688 17.339844 27.101562 17.660156 26.800781 17.980469 C 25.609375 19.25 23.25 20.160156 20.40625 20.449219 C 19.777344 20.515625 18.238281 20.5625 17.710938 20.53125 C 13.914062 20.316406 10.859375 19.039062 9.992188 17.308594 C 9.628906 16.585938 9.640625 15.964844 10.019531 15.253906 C 10.335938 14.664062 11.195312 13.9375 12.207031 13.40625 C 13.179688 12.949219 14.09375 12.609375 15.074219 12.34375 C 15.121094 12.964844 16.367188 14.449219 16.78125 14.976562 C 17.679688 16.121094 18.035156 16.667969 18.292969 17.105469 C 18.445312 17.367188 18.53125 17.535156 18.488281 18.035156 C 18.488281 18.035156 18.832031 17.730469 18.964844 17.472656 C 19.132812 17.136719 19.191406 16.796875 19.160156 16.359375 C 19.121094 15.835938 19.03125 15.511719 18.769531 14.996094 C 18.519531 14.496094 18.160156 13.992188 17.472656 13.171875 C 16.507812 12.019531 16.148438 11.382812 16 10.558594 C 15.835938 9.644531 16.101562 8.675781 16.640625 8.199219 C 16.761719 8.097656 16.949219 7.996094 16.949219 7.996094 C 16.949219 7.996094 16.933594 8.234375 16.933594 8.5 C 16.933594 9.066406 17 9.363281 17.222656 9.792969 C 17.5 10.328125 17.886719 10.828125 19.0625 12.191406 C 20.105469 13.398438 20.429688 14.011719 20.429688 14.777344 C 20.429688 14.957031 20.429688 15.144531 20.429688 15.144531 C 20.429688 15.144531 20.703125 14.941406 20.832031 14.753906 C 21.234375 14.160156 21.300781 13.234375 20.992188 12.417969 C 20.78125 11.855469 20.4375 11.34375 19.429688 10.109375 C 18.402344 8.851562 17.96875 7.847656 17.96875 7.007812 C 17.96875 6.167969 18.15625 5.367188 18.960938 4.867188 Z M 38.277344 17.222656 C 38.300781 16.941406 38.277344 16.664062 38.246094 16.519531 C 38.125 15.941406 37.683594 15.359375 37.050781 14.933594 C 36.855469 14.800781 36.277344 14.511719 35.679688 14.242188 C 34.480469 13.703125 34.144531 13.507812 33.84375 13.183594 C 33.550781 12.863281 33.445312 12.578125 33.441406 12.125 C 33.4375 11.820312 33.457031 11.730469 33.558594 11.515625 C 33.882812 10.824219 34.699219 10.457031 35.644531 10.574219 C 36.203125 10.644531 36.496094 10.765625 36.824219 11.0625 C 37.171875 11.375 37.34375 11.738281 37.441406 12.335938 L 37.46875 12.671875 L 37.984375 12.671875 L 37.941406 10.363281 L 37.769531 10.320312 C 37.640625 10.289062 36.78125 10.128906 36.324219 10.074219 C 35.644531 9.992188 35.371094 9.980469 34.96875 10.027344 C 34.195312 10.113281 33.554688 10.398438 33.070312 10.875 C 32.578125 11.355469 32.339844 11.871094 32.300781 12.523438 C 32.265625 13.195312 32.484375 13.75 32.976562 14.222656 C 33.390625 14.625 33.566406 14.726562 34.84375 15.316406 C 36.476562 16.074219 36.847656 16.296875 37.097656 16.863281 C 37.3125 17.359375 37.328125 17.910156 37.105469 18.355469 C 36.535156 19.484375 34.742188 19.78125 33.628906 18.929688 C 33.210938 18.609375 32.90625 18.128906 32.808594 17.628906 L 32.753906 17.367188 L 32.3125 17.367188 L 32.390625 19.578125 C 32.390625 19.578125 33.242188 19.800781 33.636719 19.839844 C 33.9375 19.871094 34.234375 19.925781 34.535156 19.925781 C 35.140625 19.925781 35.417969 20.003906 36.042969 19.800781 C 36.691406 19.589844 38.117188 19.171875 38.277344 17.222656 Z M 42.257812 13.59375 C 42.945312 13.59375 43.550781 13.886719 43.835938 14.320312 C 44.109375 14.730469 44.113281 15.082031 44.113281 15.3125 L 44.113281 18.5 C 44.113281 18.878906 44.394531 19 44.800781 18.867188 L 45.105469 18.753906 L 45.105469 19.171875 L 43.59375 19.8125 C 43.417969 19.890625 43.296875 19.714844 43.214844 19.394531 L 43.121094 19.089844 L 42.867188 19.277344 C 42.511719 19.550781 42.042969 19.800781 41.351562 19.800781 C 40.699219 19.804688 40.273438 19.71875 39.847656 19.058594 C 39.648438 18.679688 39.628906 18.167969 39.796875 17.800781 C 39.988281 17.375 40.375 17.15625 41.988281 16.550781 L 43.078125 16.152344 L 43.078125 15.859375 C 43.078125 14.769531 42.773438 14.433594 42.386719 14.222656 C 42.074219 14.054688 41.660156 14.097656 41.265625 14.347656 C 40.9375 14.554688 40.839844 14.90625 41.007812 15.265625 C 41.136719 15.542969 41.089844 15.457031 41.089844 15.464844 L 40.207031 15.917969 C 40.207031 15.917969 40.054688 15.664062 40.007812 15.523438 C 39.804688 14.875 40.066406 14.511719 41.066406 13.976562 C 41.589844 13.695312 41.898438 13.59375 42.257812 13.59375 Z M 43.078125 16.613281 C 43.078125 16.613281 41.65625 17.195312 41.382812 17.332031 C 41.167969 17.4375 40.917969 17.632812 40.832031 17.789062 C 40.726562 17.992188 40.742188 18.363281 40.875 18.585938 C 41 18.792969 41.152344 18.960938 41.351562 19.046875 C 41.421875 19.078125 41.660156 19.128906 41.824219 19.128906 C 42.160156 19.132812 42.515625 18.996094 42.878906 18.703125 L 43.078125 18.542969 Z M 47.519531 13.59375 L 47.519531 14.722656 L 47.816406 14.449219 C 48.460938 13.859375 49.074219 13.59375 49.546875 13.59375 C 50.625 13.59375 51.617188 14.515625 51.574219 15.816406 L 51.574219 18.835938 C 51.574219 19.171875 51.660156 19.382812 52.007812 19.382812 L 52.566406 19.382812 L 52.566406 19.800781 L 49.589844 19.800781 L 49.589844 19.382812 L 50.023438 19.382812 C 50.367188 19.382812 50.496094 19.171875 50.496094 18.835938 L 50.496094 15.816406 C 50.496094 15.1875 50.257812 14.871094 50.066406 14.683594 C 49.804688 14.433594 49.492188 14.359375 49.03125 14.390625 C 48.671875 14.414062 48.304688 14.597656 47.882812 14.929688 L 47.605469 15.144531 L 47.605469 19.046875 C 47.605469 19.257812 47.691406 19.382812 47.90625 19.382812 L 48.46875 19.382812 L 48.46875 19.800781 L 45.535156 19.800781 L 45.535156 19.382812 L 45.921875 19.382812 C 46.269531 19.382812 46.527344 19.171875 46.527344 18.835938 L 46.527344 15.605469 C 46.527344 14.769531 46.269531 14.515625 45.535156 14.894531 L 45.535156 14.445312 C 46.011719 14.304688 46.871094 13.886719 47.347656 13.59375 Z M 55.84375 19.800781 C 56.234375 19.800781 56.324219 19.757812 56.6875 19.460938 L 57.398438 18.878906 L 57.226562 18.585938 L 56.910156 18.75 C 56.433594 18.996094 56.0625 19.046875 55.585938 18.835938 C 55.183594 18.65625 54.941406 18.039062 54.941406 17.703125 L 54.941406 14.308594 L 56.925781 14.304688 L 57.140625 13.71875 L 54.941406 13.71875 L 54.941406 11.789062 L 54.722656 11.789062 C 54.207031 12.710938 53.429688 13.59375 52.480469 14.136719 L 52.480469 14.304688 L 53.859375 14.304688 L 53.859375 17.703125 C 53.859375 18.5 54.164062 19.089844 54.636719 19.425781 C 55.089844 19.742188 55.371094 19.800781 55.84375 19.800781 Z M 60.417969 13.59375 C 61.109375 13.59375 61.710938 13.886719 62 14.320312 C 62.269531 14.730469 62.273438 15.082031 62.273438 15.3125 L 62.273438 18.5 C 62.273438 18.878906 62.554688 19 62.960938 18.867188 L 63.265625 18.753906 L 63.265625 19.171875 L 61.753906 19.8125 C 61.578125 19.890625 61.460938 19.714844 61.375 19.394531 L 61.28125 19.089844 L 61.03125 19.277344 C 60.675781 19.550781 60.203125 19.800781 59.511719 19.800781 C 58.859375 19.804688 58.433594 19.71875 58.011719 19.058594 C 57.8125 18.679688 57.789062 18.167969 57.957031 17.800781 C 58.152344 17.375 58.535156 17.15625 60.148438 16.550781 L 61.238281 16.152344 L 61.238281 15.859375 C 61.238281 14.769531 60.9375 14.433594 60.546875 14.222656 C 60.234375 14.054688 59.820312 14.097656 59.425781 14.347656 C 59.101562 14.554688 59 14.90625 59.167969 15.265625 C 59.296875 15.542969 59.253906 15.457031 59.253906 15.464844 L 58.367188 15.917969 C 58.367188 15.917969 58.214844 15.664062 58.171875 15.523438 C 57.96875 14.875 58.226562 14.511719 59.230469 13.976562 C 59.753906 13.695312 60.058594 13.59375 60.417969 13.59375 Z M 61.238281 16.613281 C 61.238281 16.613281 59.820312 17.195312 59.546875 17.332031 C 59.328125 17.4375 59.078125 17.632812 58.996094 17.789062 C 58.886719 17.992188 58.90625 18.363281 59.039062 18.585938 C 59.164062 18.792969 59.316406 18.960938 59.511719 19.046875 C 59.582031 19.078125 59.820312 19.128906 59.988281 19.128906 C 60.324219 19.132812 60.679688 18.996094 61.039062 18.703125 L 61.238281 18.542969 Z M 65.679688 13.59375 L 65.679688 14.722656 L 65.976562 14.449219 C 66.621094 13.859375 67.234375 13.59375 67.707031 13.59375 C 68.789062 13.59375 69.78125 14.515625 69.738281 15.816406 L 69.738281 18.835938 C 69.738281 19.171875 69.824219 19.382812 70.167969 19.382812 L 70.730469 19.382812 L 70.730469 19.800781 L 67.753906 19.800781 L 67.753906 19.382812 L 68.183594 19.382812 C 68.527344 19.382812 68.65625 19.171875 68.65625 18.835938 L 68.65625 15.816406 C 68.65625 15.1875 68.421875 14.871094 68.226562 14.683594 C 67.96875 14.433594 67.652344 14.359375 67.191406 14.390625 C 66.832031 14.414062 66.464844 14.597656 66.042969 14.929688 L 65.769531 15.144531 L 65.769531 19.046875 C 65.769531 19.257812 65.855469 19.382812 66.070312 19.382812 L 66.628906 19.382812 L 66.628906 19.800781 L 63.695312 19.800781 L 63.695312 19.382812 L 64.085938 19.382812 C 64.429688 19.382812 64.6875 19.171875 64.6875 18.835938 L 64.6875 15.605469 C 64.6875 14.769531 64.429688 14.515625 63.695312 14.894531 L 63.695312 14.445312 C 64.171875 14.304688 65.035156 13.886719 65.507812 13.59375 Z M 78.492188 19.089844 L 78.492188 18.667969 C 78.019531 18.878906 77.804688 18.878906 77.640625 18.773438 C 77.410156 18.617188 77.414062 18.332031 77.414062 18.332031 L 77.414062 9.105469 L 77.285156 9.105469 C 76.660156 9.488281 75.90625 9.859375 75.257812 10.070312 L 75.257812 10.53125 C 75.601562 10.40625 75.863281 10.339844 76.078125 10.445312 C 76.21875 10.523438 76.292969 10.613281 76.292969 10.824219 L 76.292969 13.960938 L 76.039062 13.863281 C 75.53125 13.660156 75.269531 13.617188 74.65625 13.617188 C 74.140625 13.617188 74.03125 13.628906 73.726562 13.730469 C 72.308594 14.191406 71.398438 15.539062 71.472656 17.074219 C 71.515625 17.949219 71.777344 18.640625 72.367188 19.128906 C 72.972656 19.632812 73.488281 19.800781 74.09375 19.800781 C 74.914062 19.800781 75.386719 19.640625 75.980469 19.25 C 76.164062 19.128906 76.335938 19.003906 76.335938 19.003906 C 76.378906 19.425781 76.484375 19.675781 76.640625 19.886719 Z M 74.023438 19.011719 C 73.214844 18.734375 72.628906 17.765625 72.554688 16.59375 C 72.460938 15.125 73.296875 14.097656 74.585938 14.097656 C 75.128906 14.097656 75.542969 14.242188 76.046875 14.601562 L 76.292969 14.78125 L 76.273438 18.550781 L 75.996094 18.714844 C 75.523438 18.992188 75.296875 19.058594 74.742188 19.074219 C 74.335938 19.085938 74.203125 19.074219 74.023438 19.011719 Z M 83.132812 19.738281 C 83.488281 19.644531 83.972656 19.464844 84.535156 19.128906 L 84.535156 18.710938 C 84.058594 19.046875 83.308594 19.253906 82.636719 19.257812 C 81.90625 19.257812 81.339844 19.046875 80.953125 18.628906 C 80.378906 18.007812 80.21875 17.496094 80.121094 16.234375 L 84.664062 16.234375 C 84.664062 16.234375 84.664062 15.605469 84.402344 15.019531 C 84.226562 14.617188 84.058594 14.304688 83.585938 14.011719 C 83.140625 13.738281 82.539062 13.621094 82.03125 13.617188 C 81.5 13.613281 81.421875 13.625 81.132812 13.726562 C 79.789062 14.203125 78.875 15.554688 78.988281 16.902344 C 79.097656 18.203125 79.878906 19.246094 81.058594 19.664062 C 81.578125 19.847656 82.566406 19.882812 83.132812 19.738281 Z M 80.652344 14.558594 C 80.953125 14.265625 81.296875 14.097656 81.859375 14.097656 C 82.375 14.097656 82.722656 14.222656 83.066406 14.558594 C 83.324219 14.808594 83.453125 15.019531 83.511719 15.734375 L 80.121094 15.734375 C 80.175781 15.230469 80.347656 14.851562 80.652344 14.558594 Z M 87.207031 13.59375 L 87.207031 14.976562 C 87.433594 14.597656 87.640625 14.347656 88.027344 13.96875 C 88.328125 13.679688 88.71875 13.59375 89.019531 13.59375 C 89.234375 13.59375 89.796875 13.761719 89.796875 13.761719 L 89.796875 15.019531 L 89.582031 15.019531 C 89.496094 14.683594 89.191406 14.515625 88.761719 14.515625 C 88.199219 14.515625 87.832031 14.734375 87.605469 15.066406 C 87.378906 15.398438 87.292969 15.566406 87.292969 16.277344 L 87.292969 19.046875 C 87.292969 19.257812 87.378906 19.382812 87.597656 19.382812 L 88.15625 19.382812 L 88.15625 19.800781 L 85.222656 19.800781 L 85.222656 19.382812 L 85.613281 19.382812 C 85.957031 19.382812 86.214844 19.171875 86.214844 18.835938 L 86.214844 15.605469 C 86.214844 14.683594 85.871094 14.726562 85.265625 14.976562 L 85.265625 14.558594 C 85.828125 14.347656 86.519531 14.054688 87.035156 13.59375 Z M 87.207031 13.59375 "/>
</g>
</svg>
